<svg width="249" height="224" viewBox="0 0 249 224" fill="none" xmlns="http://www.w3.org/2000/svg">
<path d="M44.7927 160.163C43.4747 160.823 39.8397 164.419 36.7327 165.975C33.6247 167.53 29.0607 169.83 20.9177 177.31C12.7747 184.791 4.0127 192.684 2.1307 196.021C0.2487 199.358 0.572711 203.664 2.29171 207.036C4.01271 210.406 9.27171 214.158 10.8717 215.49C12.4717 216.822 13.8667 216.935 15.7137 216.454C17.5607 215.973 95.8987 180.714 127.592 162.6C159.284 144.486 141.714 141.723 135.311 140.467C128.908 139.211 157.273 110.372 151.54 98.9825C145.806 87.5945 120.633 86.1855 114.865 88.9265C109.097 91.6675 59.1107 146.627 54.8777 151.12C50.6447 155.612 46.1107 159.503 44.7927 160.163Z" fill="#ECEEEF"/>
<path d="M114.864 88.9245C120.632 86.1845 145.805 87.5925 151.54 98.9805C157.272 110.37 128.907 139.208 135.31 140.464L138.499 141.12C145.528 142.764 154.463 146.854 129.214 161.658L127.591 162.597C95.8986 180.711 17.5596 215.971 15.7126 216.452C13.8656 216.933 12.4706 216.818 10.8706 215.487L7.86757 213.084C7.36157 212.665 6.83356 212.215 6.31056 211.744C2.74456 205.076 2.37756 200.213 5.20456 197.146C10.9906 190.87 36.1386 178.288 50.0516 169.897L51.5496 168.982C65.0716 160.617 78.7686 154.166 83.7246 151.86C88.4826 149.646 86.3676 146.92 77.8676 150.635C69.3676 154.35 66.1966 154.147 60.9946 154.066C59.3506 154.041 57.9286 152.182 55.7086 150.226L75.3736 128.918C91.3766 111.695 111.346 90.5975 114.864 88.9245Z" fill="#DADEE0"/>
<path d="M114.864 88.9245C120.632 86.1845 145.805 87.5925 151.54 98.9805C157.272 110.37 128.907 139.208 135.31 140.465L138.499 141.121C145.528 142.765 154.463 146.855 129.214 161.659L127.591 162.598C98.1276 179.438 28.3486 211.098 17.1946 215.854C8.32157 207.534 6.45957 202.534 11.9336 198.933C17.0456 195.571 32.6506 188.811 46.0206 182.192C59.3906 175.573 64.7146 173.244 74.7576 168.214C84.8006 163.184 90.4056 158.351 93.4516 154.316C97.8036 148.552 88.8526 142.128 87.4536 143.084C86.0546 144.04 80.1066 147.783 76.2836 150.529C72.4606 153.276 64.5216 155.86 60.0676 155.114C58.5066 154.853 60.4966 148.915 64.3786 140.808L84.0366 119.636C97.8666 104.901 111.962 90.3045 114.864 88.9245Z" fill="#CDD1D2"/>
<path d="M91.0117 134.423C94.7667 132.273 112.732 133.852 114.962 138.06C117.192 142.268 132.589 157.943 124.992 163.614L122.811 165.163C122.576 165.325 122.329 165.495 122.069 165.673L118.408 167.645C85.6597 185.093 27.3117 211.541 17.1957 215.855C16.0007 214.735 14.9337 213.675 13.9937 212.671C13.3867 210.154 15.4097 206.843 24.6557 202.057L28.7727 200.01C48.7137 190.228 91.6927 169.96 96.9337 165.492C102.431 160.806 98.9657 154.251 101.602 150.89C104.238 147.529 101.675 146.132 97.6967 146.334C93.7197 146.536 89.6347 141.333 89.2237 141.226C88.8127 141.118 87.9217 141.639 87.2867 142.082C85.7337 143.165 82.5457 145.652 79.5647 148.027L77.5997 149.352C75.7037 150.597 74.0657 151.554 73.1517 151.8C69.9257 152.666 87.2567 136.572 91.0117 134.423Z" fill="#BBC2C5"/>
<path d="M114.864 88.9245C120.632 86.1845 145.805 87.5925 151.54 98.9805C157.272 110.37 128.907 139.208 135.31 140.464L138.499 141.12C145.528 142.764 154.463 146.854 129.214 161.658L127.591 162.597C95.8987 180.711 17.5597 215.971 15.7127 216.452C13.8657 216.933 12.4707 216.818 10.8707 215.487L8.46867 213.575C7.45267 212.753 6.29866 211.777 5.23566 210.737L4.16666 208.9C3.68566 208.053 3.29667 207.331 3.05067 206.827C1.78767 204.203 2.13966 202.693 3.67066 205.007L4.01665 205.562C5.83565 208.641 11.0877 213.374 11.5817 213.538C12.0287 213.687 20.3717 208.965 27.3217 205.601L49.6687 195.12C60.0037 190.209 71.6087 184.59 78.6387 180.877L79.9817 180.161C92.3427 173.497 110.076 162.509 108.908 161.525L107.787 160.31C105.642 157.863 103.239 154.362 104.375 152.466L107.315 147.855C109.123 144.983 110.946 141.851 110.577 141.118C109.962 139.897 102.797 144.619 98.0707 144.739C93.3447 144.859 90.9747 138.075 88.5627 139.874C86.1507 141.673 74.9207 151.161 72.7777 152.306C70.6347 153.451 68.2727 154.311 67.6687 155.555C67.0647 156.799 70.8487 156.568 71.9067 156.55C72.9647 156.532 74.9777 158.372 74.7587 160.627C74.5397 162.882 71.9127 167.865 68.6317 169.385C65.3507 170.905 62.2107 171.967 60.9737 170.424C60.1487 169.396 59.8217 168.064 59.9927 166.431L56.7297 166.899C55.3717 167.074 50.8077 164.619 49.7467 164.523C48.6857 164.427 43.0867 164.485 41.3337 164.721C39.8727 164.918 39.0027 165.576 37.9057 165.452L37.7357 165.41C40.2677 163.874 42.9417 161.385 44.3327 160.437L44.7907 160.157C45.9207 159.592 49.4127 156.652 53.0527 152.994L54.8747 151.114C59.1097 146.625 109.096 91.6665 114.864 88.9245Z" fill="#9998A7"/>
<path d="M132.434 109.614C135.179 109.482 138.859 105.305 137.796 102.552C136.733 99.7995 128.191 97.9975 125.652 98.1315C123.113 98.2655 121.164 99.3195 123.977 102.615C126.79 105.91 129.689 109.746 132.434 109.614Z" fill="#A3857C"/>
<path d="M126.449 100.81C129.652 101.341 134.283 101.824 134.955 103.224C135.627 104.624 134.618 106.175 132.154 106.358C129.689 106.542 125.316 99.6765 123.611 99.5865C121.907 99.4955 117.138 100.142 118.381 102.701C119.623 105.26 131.468 111.625 132.667 112.147C133.865 112.669 140.471 108.912 140.521 106.585C140.571 104.258 142.52 99.5445 137.619 98.5395C132.718 97.5335 123.247 100.279 126.449 100.81Z" fill="#967D73"/>
<path d="M115.771 133.565C116.568 132.854 119.986 129.426 122.903 125.938C123.474 125.255 121.589 123.996 122.922 122.455C124.255 120.914 125.653 122.517 126.028 121.953C126.382 121.42 126.421 121.505 126.656 121.048C126.808 120.784 125.863 119.921 126.24 118.802C126.617 117.684 127.281 117.323 127.253 116.94C127.058 114.309 122.999 112.814 121.773 112.115C120.349 111.303 114.507 111.518 112.256 113.638C110.005 115.758 105.493 120.85 107.923 121.479C110.353 122.108 113.158 122.142 114.919 125.785C116.68 129.428 114.298 134.88 115.771 133.565Z" fill="#BBBCC1"/>
<path d="M157.868 59.2695C149.905 63.7225 143.642 70.4365 150.856 75.8125C155.666 79.3965 162.144 83.5144 170.29 88.1664L205.912 57.4525C205.838 56.9555 205.775 56.6735 205.724 56.6055C201.553 51.0805 198.808 47.7595 197.068 45.4845C195.296 43.1675 192.119 39.4164 187.537 34.2314C184.075 40.4374 180.269 45.1495 176.119 48.3705C169.895 53.2015 165.832 54.8165 157.868 59.2695Z" fill="#65656E"/>
<path d="M188.826 44.6965C188.699 46.2195 187.77 48.2635 184.634 51.2565C181.498 54.2505 168.764 59.9115 164.54 64.4335C160.316 68.9555 160.104 72.2804 161.95 73.6535C163.796 75.0265 177.626 61.2795 181.451 57.1005C185.276 52.9215 186.914 51.2125 188.943 50.7075C190.971 50.2025 194.493 51.6145 193.5 49.9405C192.505 48.2665 188.953 43.1735 188.826 44.6965Z" fill="#737378"/>
<path d="M187.537 34.2314L190.118 37.1705C192.53 39.9375 194.437 42.1885 195.837 43.9225L202.621 52.5535C203.555 53.7555 204.587 55.0985 205.724 56.6055L205.779 56.7444L205.912 57.4525L170.29 88.1664C166.817 86.1834 163.646 84.2964 160.78 82.5074C160.877 80.3894 161.459 78.3345 161.946 78.4585C162.75 78.6635 164.913 77.2994 165.483 76.6884L176.475 64.0974C181.071 58.8574 185.608 53.7474 186.728 52.7144C188.416 51.1564 189.765 51.1084 190.961 51.3544L194.779 52.3015C196.264 52.6485 197.811 52.9914 198.228 53.0314C198.858 53.0914 192.174 46.9395 189.612 43.2865L189.205 42.6694C187.048 39.1444 185.787 42.0494 184.994 43.6924C184.201 45.3354 171.218 57.0535 162.1 62.8215C155.033 67.2915 155.83 75.5125 156.785 79.9505C154.578 78.4935 152.607 77.1194 150.857 75.8154C143.642 70.4394 149.905 63.7254 157.869 59.2724C165.832 54.8194 169.896 53.2044 176.12 48.3734C180.268 45.1504 184.074 40.4374 187.537 34.2314Z" fill="#504F51"/>
<path d="M122.697 161.653C114.732 161.23 107.679 157.693 106.023 154.909C104.367 152.125 104.228 148.46 106.54 146.054C108.852 143.648 130.542 119.887 133.917 115.246C137.291 110.605 141.069 105.096 139.948 101.787C138.827 98.4785 133.263 98.1715 128.599 98.2795C123.935 98.3875 117.188 97.7795 114.042 98.0975C110.896 98.4155 114.62 77.2285 115.508 72.0875C116.395 66.9465 116.779 63.6815 126.688 59.4915C136.596 55.3015 147.014 54.3275 152.581 52.4085C158.147 50.4885 166.656 47.2095 166.19 42.8645C165.724 38.5205 165.235 31.6375 166.275 26.5585C167.315 21.4795 169.15 19.8665 170.93 18.8795C172.71 17.8925 173.756 17.7835 174.119 18.1885C174.482 18.5935 175.053 18.8975 175.059 19.2935C175.065 19.6895 174.715 20.8415 174.906 21.5125C175.097 22.1835 179.979 27.1985 181.929 28.9825C183.879 30.7655 188.62 33.5585 189.194 34.0845C189.768 34.6105 191.167 36.0235 190.697 36.5145C190.227 37.0055 189.075 37.2445 188.751 38.1255C188.427 39.0065 188.551 43.9335 186.049 47.9635C183.547 51.9925 165.988 59.9065 162.109 61.9525C158.23 63.9975 154.417 67.8815 155.365 72.3195C156.313 76.7575 165.313 78.5655 170.131 79.9055C174.949 81.2455 196.503 91.3985 196.841 94.1445C197.179 96.8905 169.232 127.618 158.278 136.87C147.324 146.122 130.662 162.077 122.697 161.653Z" fill="#BAB3DD"/>
<path d="M123.516 160.786C115.551 160.363 109.421 157.189 107.765 154.405C106.109 151.621 106.165 148.524 108.477 146.118C110.789 143.712 132.512 120.283 135.887 115.642C139.261 111.001 142.517 104.699 141.396 101.389C140.275 98.0805 135.171 97.1034 130.508 97.2104C125.845 97.3174 117.648 97.1074 114.503 97.4254C111.358 97.7434 114.621 77.2264 115.509 72.0854C116.396 66.9444 116.78 63.6795 126.689 59.4895C136.597 55.2995 147.015 54.3254 152.582 52.4064C158.148 50.4864 166.657 47.2075 166.191 42.8625C165.725 38.5185 165.236 31.6355 166.276 26.5565C167.316 21.4775 169.151 19.8645 170.931 18.8775C172.711 17.8905 173.757 17.7814 174.12 18.1864C174.483 18.5914 175.054 18.8954 175.06 19.2914C175.066 19.6874 174.716 20.8394 174.907 21.5104C175.098 22.1814 179.98 27.1965 181.93 28.9805C183.88 30.7635 188.621 33.5564 189.195 34.0824C189.769 34.6084 190.609 35.3424 190.139 35.8334C189.669 36.3244 188.517 36.5634 188.193 37.4444C187.869 38.3254 187.993 43.2525 185.491 47.2825C182.989 51.3115 165.43 59.2255 161.551 61.2715C157.672 63.3175 153.859 67.2004 154.807 71.6384C155.755 76.0764 164.244 78.3604 169.062 79.7014C173.88 81.0414 195.993 91.8734 196.331 94.6194C196.669 97.3654 169.233 127.616 158.279 136.868C147.325 146.12 131.481 161.209 123.516 160.786Z" fill="#7756D3"/>
<path d="M113.687 150.147C114.179 155.114 121.618 155.421 125.061 156.954C126.872 157.761 129.743 158.028 132.248 157.686C128.871 159.698 125.853 160.91 123.515 160.786C115.55 160.363 109.42 157.189 107.764 154.405C106.108 151.621 106.164 148.524 108.476 146.118L116.467 137.519C118.782 135.004 121.355 132.194 123.861 129.432C117.728 138.155 113.369 146.932 113.687 150.147ZM188.559 88.8985L187.142 87.2365C190.017 90.5635 192.698 93.8005 195.183 96.9475C190.077 104.513 169.433 127.052 159.388 135.91L158.278 136.87C152.13 142.063 144.442 149.094 137.472 154.189L138.05 152.238C140.36 144.062 145.566 122.612 149.26 115.831C152.14 110.546 164.513 101.17 186.381 87.7045C187.133 88.1045 187.859 88.5045 188.559 88.8985ZM126.315 59.6495L126.078 60.0365C121.615 67.4805 125.675 70.7275 128.834 73.3535C132.573 76.4625 132.808 85.4505 145.196 88.5745L146.464 89.0285C155.732 91.8505 146.549 103.962 136.861 114.248C139.85 109.805 142.406 104.376 141.394 101.388C140.353 98.3155 135.878 97.2535 131.51 97.2035L127.663 97.2415C123.028 97.2575 117.074 97.1645 114.5 97.4245C111.588 97.7195 114.17 80.1505 115.273 73.4655L115.763 70.6145C116.553 66.3525 117.724 63.3525 126.315 59.6495Z" fill="#7152CB"/>
<path d="M150.041 86.9025C160.933 89.1515 165.912 95.6685 158.667 106.996C154.18 114.01 137.374 127.141 108.248 146.387L119.173 134.574C125.609 127.549 132.972 119.387 135.456 116.209L135.886 115.642C139.26 111.001 142.516 104.699 141.395 101.389C140.354 98.3165 135.879 97.2545 131.511 97.2045L127.664 97.2425C123.029 97.2585 117.075 97.1655 114.501 97.4255C113.046 97.5725 113.993 86.3325 114.412 81.1455C120.79 84.4285 126.372 86.1215 131.158 86.2255C138.338 86.3805 144.966 85.8545 150.041 86.9025ZM123.984 68.8495L126.071 68.6675C134.556 68.1275 148.054 69.3925 147.794 72.6505C147.563 75.5475 125.159 76.9015 114.417 79.0045L115.261 73.5515L115.827 70.2895C119.25 69.5185 122.113 69.0635 123.984 68.8495Z" fill="#674DC5"/>
<path d="M169.716 19.7025C173.048 23.9915 175.242 27.2475 176.297 29.4715L178.171 34.0065C180.184 39.1065 182.345 45.9215 179.3 49.3445C175.385 53.7455 166.338 56.3525 159.477 59.7045C152.616 63.0565 146.655 67.3685 141.315 67.5005C135.976 67.6335 131.351 67.1105 126.924 67.2895C124.615 67.3825 120.699 69.6485 115.178 74.0865L115.767 70.5975C116.565 66.2835 117.768 63.2615 126.686 59.4905C136.594 55.3005 147.012 54.3265 152.579 52.4075L155.552 51.3355C160.732 49.3645 166.576 46.4845 166.188 42.8635C165.722 38.5195 165.233 31.6365 166.273 26.5575C167.053 22.7475 168.28 20.8885 169.596 19.7805L169.716 19.7025Z" fill="#DFA76D"/>
<path d="M167.181 23.3825C169.374 22.9375 170.965 23.4065 171.692 25.1075C176.339 35.9765 176.422 41.8005 172.574 48.6175C168.94 55.0565 158.71 56.8305 149.39 60.3225L147.756 60.9575C138.028 64.8925 128.06 64.5785 124.937 65.8915C123.045 66.6875 120.184 69.0175 116.356 72.8815L115.178 74.0865L115.767 70.5975L116.058 69.2045C116.928 65.6025 118.759 62.8425 126.686 59.4905C136.594 55.3005 147.012 54.3265 152.579 52.4075L155.552 51.3355L157.512 50.5545C162.095 48.6335 166.527 46.0315 166.188 42.8645C165.722 38.5205 165.233 31.6375 166.273 26.5585C166.446 25.7115 166.642 24.9615 166.855 24.2945L167.181 23.3825Z" fill="#F4C782"/>
<path d="M174.118 18.1875C174.481 18.5925 175.052 18.8965 175.058 19.2925C175.063 19.5895 174.867 20.3115 174.849 20.9375L175.113 21.9505L174.098 23.9815C172.995 26.2845 172.594 28.6375 173.165 32.0465C173.828 36.0035 173.401 40.5305 170.143 45.3985C166.885 50.2665 161.857 53.2485 152.976 55.8615C149.619 56.7445 145.776 57.7985 141.447 59.0215C134.954 60.8565 131.303 62.0655 127.999 63.3565C123.372 65.1635 120.912 67.4665 118.371 69.8995C117.757 70.4875 116.528 70.0365 115.921 69.8635L116.248 68.5165C117.192 65.2425 119.273 62.6255 126.688 59.4905C136.596 55.3005 147.014 54.3265 152.581 52.4075L155.554 51.3355C160.734 49.3645 166.578 46.4845 166.19 42.8635C165.724 38.5195 165.235 31.6365 166.275 26.5575C167.315 21.4785 169.15 19.8655 170.93 18.8785C172.708 17.8915 173.755 17.7825 174.118 18.1875Z" fill="#9F4C0B"/>
<path d="M174.118 18.1875C174.481 18.5925 175.052 18.8965 175.058 19.2925C175.063 19.5895 174.867 20.3115 174.849 20.9375L174.905 21.5115L173.89 23.5425C172.787 25.8455 172.044 28.0185 172.478 31.1335C173.035 35.1385 173.007 40.5655 169.179 45.4345C165.59 49.9985 161.488 52.7055 152.607 55.3185L142.482 58.1375C135.989 59.9725 130.643 61.5945 127.338 62.8855C122.711 64.6925 120.359 66.8605 117.818 69.2935C117.204 69.8815 116.529 70.0355 115.922 69.8635L116.249 68.5165C117.193 65.2425 119.274 62.6255 126.689 59.4905C136.597 55.3005 147.015 54.3265 152.582 52.4075L155.555 51.3355C160.735 49.3645 166.579 46.4845 166.191 42.8635C165.725 38.5195 165.236 31.6365 166.276 26.5575C167.316 21.4785 169.151 19.8655 170.931 18.8785C172.708 17.8915 173.755 17.7825 174.118 18.1875Z" fill="#FBD47F"/>
<path d="M174.117 18.1875C174.48 18.5925 175.051 18.8965 175.057 19.2925C175.062 19.5895 174.866 20.3115 174.848 20.9375L174.904 21.5115L173.889 23.5425C172.786 25.8455 172.043 28.0185 172.477 31.1335C173.034 35.1385 173.006 40.5655 169.178 45.4345C165.589 49.9985 161.487 52.7055 152.606 55.3185L142.481 58.1375L138.332 59.3285C133.713 60.6775 129.907 61.8815 127.337 62.8855C122.71 64.6925 120.358 66.8605 117.817 69.2935C117.586 69.5155 117.346 69.6755 117.104 69.7795C118.087 67.9135 119.941 65.1195 123.446 63.3175C128.617 60.6585 139.693 57.2235 147.653 55.4205L149.43 55.0345C157.428 53.3795 163.481 50.0765 166.774 47.1335C170.067 44.1905 171.75 37.9235 171.818 35.1055C171.887 32.2875 169.604 28.7065 171.419 24.5435C172.832 21.3035 173.173 19.1885 172.591 18.1265C173.386 17.8815 173.887 17.9325 174.117 18.1875Z" fill="#F4AA5A"/>
<path d="M175.234 86.8485L160.963 79.7255C158.26 78.3495 156.68 77.4735 155.812 76.8535C151.858 74.0295 150.456 68.5435 154.226 64.4095C156.307 62.1275 159.904 59.8065 165.809 56.6845L175.775 51.5635L176.333 51.2675C182.268 48.0995 185.283 44.3385 185.851 40.1705L185.939 39.2015C186.088 35.9525 186.782 34.2015 188.363 34.1995C188.756 34.1985 189.076 34.5175 189.077 34.9105C189.077 35.2055 188.898 35.4595 188.643 35.5675L188.366 35.6235C187.927 35.6245 187.478 36.7545 187.363 39.2655C187.129 44.3655 183.811 48.8905 177.005 52.5235L168.133 57.0775C161.385 60.5665 157.394 63.0505 155.28 65.3685C152.16 68.7895 153.317 73.3175 156.641 75.6925C157.416 76.2465 158.907 77.0735 161.426 78.3595L174.734 84.9945L180.816 88.1365C189.366 92.6745 192.098 101.226 189.965 106.65C188.74 109.764 144.328 150.757 138.913 153.753C135.294 155.755 130.732 158.029 124.704 160.606L116.624 157.904C113.805 156.939 112.012 156.287 111.234 155.944C108.099 154.561 106.491 149.687 109.571 146.647L112.644 143.471C120.018 135.691 135.689 118.526 138.577 114.797C143.179 108.856 145.254 103.875 144 100.682C142.218 96.1415 140.097 94.6925 133.387 94.7445L128.568 94.8315C123.851 94.9565 117.977 95.2095 110.949 95.5885C106.263 95.8415 108.619 94.7335 118.016 92.2645C124.193 91.9795 129.335 92.0445 133.221 91.9685C140.966 91.8185 144.781 93.8025 146.604 99.6005C147.844 103.544 146.814 109.682 141.544 115.942L138.605 117.014C133.068 123.592 114.603 143.68 110.573 147.659C108.29 149.913 109.514 153.625 111.81 154.638L113.075 155.14C115.141 155.918 119.086 157.296 124.628 159.28L129.091 157.176C132.618 155.478 135.662 153.921 138.224 152.504C143.377 149.654 187.561 108.871 188.64 106.126C190.517 101.352 188.034 93.5775 180.149 89.3925L178.723 88.6415C177.613 88.0665 176.457 87.4705 175.234 86.8485Z" fill="#5A37B5"/>
<path d="M118.014 92.2675C124.191 91.9825 129.333 92.0475 133.219 91.9715C140.964 91.8215 144.779 93.8055 146.602 99.6035C147.842 103.547 146.812 109.685 141.542 115.945L138.603 117.017L136.036 119.989C135.248 120.886 134.831 121.297 133.894 122.347C133.79 122.505 135.643 125.05 134.104 126.179C132.565 127.308 131.382 125.226 131.196 125.397C130.911 125.752 130.654 126.028 130.103 126.638C129.949 126.858 131.981 128.715 130.533 130.288C129.085 131.861 127.423 129.56 127.019 130.004C124.082 133.234 121.571 135.99 118.824 138.952C114.824 142.471 111.089 145.916 108.202 148.846C108.448 148.061 108.896 147.311 109.568 146.648L112.641 143.472L121.578 133.868C128.735 126.082 136.61 117.334 138.574 114.798C143.176 108.857 145.251 103.876 143.997 100.683C142.215 96.1425 140.094 94.6935 133.384 94.7455L128.565 94.8325L124.81 94.9505C122.162 95.0445 119.226 95.1715 116 95.3295L110.945 95.5905C106.262 95.8455 108.617 94.7375 118.014 92.2675Z" fill="#4A27A6"/>
<path d="M124.367 123.138L124.645 123.072C125.673 122.944 128.453 125.968 129.4 127.354C130.347 128.739 130.416 129.353 129.742 129.838C129.068 130.323 128.194 129.364 127.779 128.544C127.363 127.724 125.458 125.946 125.016 125.598C124.574 125.25 124.131 125.268 123.873 124.784C123.614 124.3 123.619 123.2 124.646 123.072L124.367 123.138ZM128.083 118.857L128.361 118.791C129.389 118.663 132.169 121.687 133.116 123.073C134.063 124.458 134.132 125.072 133.458 125.557C132.784 126.042 131.91 125.083 131.495 124.263C131.079 123.443 129.174 121.665 128.732 121.317C128.29 120.969 127.847 120.987 127.589 120.503C127.33 120.019 127.335 118.919 128.362 118.791L128.083 118.857Z" fill="#9053DC"/>
<path d="M124.266 123.181L124.646 123.071C125.147 123.009 126.065 123.696 126.983 124.577L125.964 126.457L125.241 125.786C125.147 125.704 125.071 125.639 125.016 125.596C124.574 125.248 124.131 125.266 123.873 124.782C123.688 124.436 123.638 123.776 123.998 123.381L124.266 123.181ZM127.807 118.615L128.186 118.497C128.6 118.446 129.327 118.953 130.109 119.668C129.703 120.211 129.294 120.798 128.881 121.428L128.732 121.316C128.29 120.968 127.696 120.841 127.437 120.357C127.252 120.011 127.189 119.275 127.542 118.836L127.807 118.615Z" fill="#8343D1"/>
<path d="M132.58 115.343C134.074 115.619 135.66 115.369 137.119 114.327C138.578 113.285 140.989 110.565 142.235 107.915C143.481 105.265 143.559 104.27 143.71 102.722C143.861 101.174 141.334 96.8285 139.067 96.0675C136.8 95.3065 139.508 96.8335 140.428 99.3455C141.347 101.857 140.826 106.793 139.117 109.266C137.409 111.739 131.087 115.067 132.58 115.343Z" fill="#8A532D"/>
<path d="M134.677 115.299C135.787 115.058 138.391 112.869 140.157 110.308C141.923 107.747 143.361 103.762 143.351 102.444C143.341 101.126 141.3 96.2975 137.631 95.5305C133.962 94.7635 121.677 95.3684 119.48 95.6384C118.016 95.8184 116.936 95.9595 116.24 96.0605C121.436 98.7745 124.347 100.218 124.971 100.392C125.908 100.654 128.699 100.778 130.973 100.922C133.247 101.066 136.442 100.562 137.159 102.092C137.876 103.622 137.367 104.269 136.942 105.127C136.517 105.985 134.865 108.509 133.697 109.017C132.529 109.526 130.948 108.935 129.596 107.831C128.244 106.727 126.813 104.626 124.759 103.758C123.39 103.179 122.322 102.627 121.557 102.102L113.475 96.3894L106.353 107.155C111.058 108.15 114.044 108.63 115.311 108.596C117.211 108.545 118.296 108.3 119.078 108.513C119.86 108.726 122.837 109.168 123.2 109.751C123.563 110.334 123.88 111.057 124.353 111.362C124.826 111.667 128.137 113.479 130.178 114.583C132.217 115.687 133.567 115.54 134.677 115.299Z" fill="#C28D59"/>
<path d="M106.353 107.155L113.475 96.3895L121.557 102.102C121.689 102.192 121.83 102.284 121.979 102.376C117.771 103.414 115.022 104.518 113.736 105.688C112.801 106.538 112.722 107.464 113.499 108.466C112.131 108.29 110.182 107.944 107.661 107.428L106.353 107.155ZM116.24 96.0605L119.48 95.6385C120.51 95.5115 123.756 95.3115 127.292 95.2145C126.229 97.0675 125.843 98.2635 126.127 98.8025C126.426 99.3695 126.971 100.009 127.761 100.72L126.399 100.61C125.781 100.549 125.277 100.478 124.97 100.393L124.467 100.2C123.313 99.7015 120.57 98.3215 116.24 96.0605Z" fill="#BD7E59"/>
<path d="M116.255 107.715C114.397 107.31 113.69 106.698 115.068 106.611C116.446 106.524 121.51 108.107 122.241 108.413C122.972 108.719 125.082 110.372 126.85 111.613L127.443 112.047C128.99 113.241 131.828 115.005 134.174 114.45C136.52 113.895 138.468 111.594 139.671 109.71C140.874 107.825 143.143 103.975 142.476 100.989C142.185 99.6885 141.308 97.9255 139.753 96.5125C142.077 98.1945 143.343 101.406 143.351 102.444C143.361 103.763 141.922 107.747 140.157 110.308C138.392 112.869 135.788 115.058 134.677 115.299C133.567 115.54 132.216 115.687 130.176 114.583L124.351 111.362C124.114 111.209 123.917 110.952 123.734 110.661L123.199 109.751C122.836 109.168 119.86 108.726 119.077 108.513C118.718 108.415 118.295 108.414 117.759 108.446L116.886 107.961C116.635 107.836 116.424 107.752 116.255 107.715Z" fill="#E1AE86"/>
<path d="M126.286 104.678C127.574 105.68 128.526 106.799 129.516 107.608C130.868 108.712 132.439 109.118 133.607 108.609C134.629 108.164 135.961 106.578 136.578 105.514L136.792 105.121C137.217 104.263 137.431 102.978 137.16 102.093C137.083 101.841 136.879 101.669 136.662 101.519C137.354 101.804 137.877 102.343 137.992 102.894C138.267 104.213 137.703 105.704 135.716 108C133.729 110.296 132.013 109.823 130.337 108.852C129.666 108.463 128.97 107.773 128.285 107.008L126.286 104.678ZM120.543 108.818L119.077 108.512C118.295 108.299 117.21 108.544 115.31 108.595C114.297 108.622 112.183 108.32 108.969 107.689L106.352 107.154L107.607 105.28L113.26 106.989C113.82 107.195 117.039 107.492 118.443 107.869C119.015 108.023 119.76 108.366 120.543 108.818Z" fill="#925728"/>
<path d="M111.162 36.1135C110.327 35.6965 108.637 36.0555 107.262 37.2905C105.887 38.5255 98.8517 52.4325 97.7137 53.8885C97.4407 54.3265 97.2577 54.7075 97.1647 55.0325C96.4147 55.3095 95.8307 56.0295 95.4127 57.1925C94.7857 58.9375 89.4207 68.6035 88.6277 70.9445C87.8347 73.2855 84.3337 80.4455 84.0947 81.1095C83.8557 81.7735 77.5747 94.2845 76.2857 97.7025C74.9977 101.121 74.9217 102.703 74.3817 104.102C73.8417 105.501 71.9507 108.629 71.3357 109.831C70.7217 111.032 68.0167 112.23 67.5777 113.342C67.1387 114.454 66.2557 115.283 65.2267 116.674C64.1977 118.065 60.9327 123.786 59.9367 125.777C58.9407 127.768 57.2527 132.165 55.6977 135.282C54.1437 138.399 53.4727 138.573 52.2517 141.583C51.0307 144.594 49.8917 148.054 49.6847 149.071C49.4777 150.088 47.8727 152.358 46.9767 154.081C46.0807 155.804 45.9557 157.531 44.2517 158.86C42.5477 160.189 41.6337 162.241 44.3607 162.24C47.0877 162.239 62.6077 156.319 66.8977 153.91C71.1877 151.5 75.7817 146.515 79.2817 144.214C82.7817 141.913 88.6897 137.302 91.9457 134.257C95.2017 131.212 103.291 120.985 107.249 115.215C111.207 109.445 115.027 102.539 115.36 101.557C115.582 100.903 114.944 99.0655 113.447 96.0455C117.783 95.4025 120.087 94.9385 120.357 94.6545C120.762 94.2285 129.549 79.3385 130.19 77.8855C130.831 76.4325 130.777 73.8045 126.32 71.0735C121.863 68.3425 112.509 58.4545 111.367 52.3715C110.225 46.2875 112.678 40.2175 112.759 39.3475C112.839 38.4775 111.997 36.5295 111.162 36.1135Z" fill="#A089E5"/>
<path d="M111.162 36.1135C110.327 35.6965 108.637 36.0555 107.262 37.2905C105.887 38.5255 98.8516 52.4325 97.7136 53.8885C97.4406 54.3265 97.2576 54.7075 97.1646 55.0325C96.4146 55.3095 95.8306 56.0295 95.4126 57.1925C94.7856 58.9375 89.4206 68.6035 88.6276 70.9445C87.8346 73.2855 84.3336 80.4455 84.0946 81.1095C83.8556 81.7735 77.5746 94.2845 76.2856 97.7025C74.9976 101.121 74.9216 102.703 74.3816 104.102C73.8416 105.501 71.9506 108.629 71.3356 109.831C70.7216 111.032 68.0166 112.23 67.5776 113.342C67.1386 114.454 66.2556 115.283 65.2266 116.674C64.1976 118.065 60.9326 123.786 59.9366 125.777C58.9406 127.768 57.2526 132.165 55.6976 135.282C54.1436 138.399 53.4726 138.573 52.2516 141.583C51.0306 144.594 49.8916 148.054 49.6846 149.071C49.4776 150.088 47.8726 152.358 46.9766 154.081C46.0806 155.804 45.9556 157.531 44.2516 158.86C42.5476 160.189 40.9276 161.671 43.6546 161.67C46.3816 161.669 62.1026 155.563 66.3926 153.153C70.6826 150.743 75.2766 145.759 78.7766 143.458C82.2766 141.157 88.1846 136.547 91.4406 133.502C94.6966 130.457 102.786 120.23 106.744 114.46C110.702 108.69 114.254 102.187 114.587 101.206C114.809 100.552 114.171 98.7155 112.674 95.6955C117.158 95.0335 119.535 94.5615 119.805 94.2775C120.21 93.8515 128.448 79.1895 129.09 77.7365C129.731 76.2835 129.225 74.1235 124.768 71.3925C120.311 68.6615 112.057 58.9235 110.914 52.8395C109.771 46.7555 112.189 39.4385 112.27 38.5685C112.35 37.6985 111.997 36.5295 111.162 36.1135Z" fill="#AA7EF7"/>
<path d="M110.919 52.8665C112.008 58.5715 119.315 67.4655 123.891 70.8015L124.767 71.3925C129.224 74.1235 129.73 76.2835 129.089 77.7365L128.652 78.6024C126.8 82.1184 120.167 93.8965 119.804 94.2775C119.534 94.5615 117.157 95.0334 112.673 95.6954C114.17 98.7144 114.808 100.551 114.586 101.206L114.316 101.821C113.359 103.802 110.206 109.41 106.743 114.46C102.785 120.23 94.6957 130.457 91.4397 133.502C88.1837 136.547 82.2757 141.158 78.7757 143.459C75.2757 145.76 70.6817 150.745 66.3917 153.154C63.9647 154.518 57.8767 157.065 52.5547 159.02C53.0437 157.515 52.5967 155.545 54.0887 154.518L54.8737 154.041C61.5407 150.487 60.7617 139.839 65.3707 134.352C69.9797 128.865 72.4897 124.401 73.1987 121.23C73.9077 118.059 73.1127 115.677 74.7697 109.908L80.8147 101.689C85.0397 95.8675 87.7987 91.8515 89.0897 89.6425C91.8347 84.9495 95.0167 70.9795 98.0067 70.7095C100.997 70.4395 104.443 69.2085 105.181 66.1225C105.482 64.8655 106.524 62.3785 107.929 59.2845L110.919 52.8665Z" fill="#8459EB"/>
<path d="M123.891 70.8015L124.767 71.3925C129.224 74.1235 129.73 76.2835 129.089 77.7365L128.652 78.6025L124.595 85.9705C122.326 90.0165 120.014 94.0565 119.805 94.2775C119.535 94.5615 117.158 95.0335 112.674 95.6955C114.171 98.7145 114.809 100.551 114.587 101.206L114.317 101.822L113.726 102.979C112.504 105.285 110.155 109.356 107.537 113.287L106.744 114.46C102.786 120.23 94.6967 130.457 91.4407 133.502C88.1847 136.547 82.2767 141.158 78.7767 143.459C75.2767 145.76 70.6827 150.745 66.3927 153.154C63.9657 154.518 57.8777 157.065 52.5557 159.02C53.0447 157.515 54.0617 156.073 55.5527 155.046L56.3377 154.57C57.4167 153.995 58.3777 153.284 59.2507 152.477L65.5287 148.508C67.5787 147.193 69.0757 146.204 70.0187 145.54C74.5657 142.335 92.1067 120.182 95.4617 112.324C98.8157 104.467 89.6337 105.197 91.2017 100.514C92.7697 95.8315 103.489 88.0205 105.828 84.3955L106.969 82.5285C109.195 78.7695 113.362 71.3035 117.095 63.9895C119.379 66.8335 121.895 69.3465 123.891 70.8015Z" fill="#784DDE"/>
<path d="M61.5737 129.307C62.1517 129.883 62.6297 130.979 63.0067 132.596L63.2207 133.628C63.7677 136.583 64.8227 140.402 64.9887 142.09L65.0087 142.57C64.9537 143.878 65.3137 145.17 65.6437 145.707C65.9737 146.245 66.3287 148.998 66.4637 149.978C66.5537 150.631 66.6217 151.451 66.6697 152.437L66.1987 150.367C66.0697 149.743 65.9677 149.184 65.8937 148.69L65.8027 147.999C65.7027 147.082 65.6467 146.84 65.4807 146.66L64.8537 146.103C64.2237 145.457 63.7697 145.227 63.8437 145.66L64.1637 146.644C64.5347 147.857 65.0437 149.868 64.7257 149.496L64.3367 148.954C63.9947 148.44 63.4887 147.618 62.8177 146.488C62.0617 145.362 61.6857 144.61 61.6887 144.233L61.9277 141.434C62.0647 139.436 62.1207 136.866 61.6087 135.398L60.0227 130.935L61.5737 129.307Z" fill="#4433A5"/>
<path d="M76.4516 108.148C79.3426 106.408 82.9476 107.314 88.5356 107C93.7066 106.709 104.793 108.742 109.51 110.238C108.633 111.624 107.699 113.063 106.742 114.459C103.048 119.845 95.7546 129.112 92.1516 132.799L91.4386 133.501C91.2866 133.643 91.1296 133.788 90.9666 133.937C87.8316 135.67 85.5516 136.358 84.1036 136.015C81.6576 135.436 73.9376 130.21 70.9046 128.924C67.8716 127.638 60.7186 126.646 60.6726 126.666L63.3966 123.037C63.6016 122.767 63.8176 122.482 64.0456 122.181L71.1066 123.86C76.0956 125.018 82.9016 128.305 84.3256 128.76C85.7496 129.215 88.6436 123.751 89.3276 121.457C89.9586 119.339 86.9286 117.609 83.3416 115.832L82.4356 115.388C78.9136 113.667 76.7656 112.872 74.3286 112.803L73.3986 112.811C70.5466 112.933 73.5616 109.888 76.4516 108.148Z" fill="#694ABE"/>
<path d="M50.3115 147.509C51.6585 147.683 53.5145 147.574 53.4275 147.963C53.3395 148.351 53.2305 148.9 53.0545 149.27C52.8785 149.64 50.2525 150.762 48.7545 151.423L48.4365 151.567C49.0415 150.556 49.5725 149.626 49.6855 149.07C49.7495 148.755 49.9045 148.202 50.1225 147.502C50.1925 147.495 50.2525 147.502 50.3115 147.509ZM85.5715 116.048C86.5385 115.575 88.8145 115.339 89.8575 115.346C90.9005 115.352 90.9365 115.756 90.9405 116.462C90.9445 117.169 89.9155 117.401 89.5625 117.471C89.2095 117.541 86.9745 117.859 86.5535 118.01C86.1325 118.161 85.5555 118.844 85.6965 118.919C85.8375 118.994 86.4865 118.869 87.0845 119.072C87.6825 119.275 87.2665 120.6 86.9835 120.867C86.7005 121.134 84.3415 121.189 83.2395 121.283C82.1375 121.377 82.0595 122.072 82.7155 121.923C83.3715 121.774 83.8185 122.519 83.9655 122.733C84.1135 122.947 83.9955 124.089 83.4515 124.169C82.9075 124.25 79.3205 124.946 79.0175 125.007C78.7145 125.068 78.7085 125.487 79.4905 125.302C80.2725 125.117 80.2335 126.096 80.2765 126.554C80.3185 127.011 77.5815 127.565 77.0035 127.634C76.4985 127.695 76.2095 127.883 76.4305 128.424L76.6885 128.938C77.0095 129.662 77.0905 130.596 76.7855 130.755C76.4425 130.933 73.1185 131.961 72.1655 132.154C71.2125 132.347 71.0415 130.565 71.6255 130.325C72.2095 130.085 75.4365 128.839 75.8045 128.791C76.1725 128.744 75.6115 128.418 75.2135 128.299C74.8155 128.18 74.5345 127.727 74.6115 127.066C74.6885 126.405 76.6585 125.558 77.4275 125.447C78.1955 125.336 78.2785 125.316 77.9565 124.61C77.6355 123.904 78.3295 123.017 78.9365 122.787C79.5435 122.557 81.4015 122.38 81.7405 122.197C82.0795 122.014 82.0255 121.371 81.6615 120.936C81.2975 120.501 81.6095 119.328 81.9895 119.283C82.3695 119.238 84.4015 118.907 84.9175 118.828C85.4325 118.749 85.7005 118.203 85.8405 118.054C85.9795 117.905 85.2435 118.049 85.0175 117.557C84.7895 117.066 84.6045 116.521 85.5715 116.048ZM93.3175 111.52C93.8065 111.648 94.0995 113.154 93.5785 113.406C93.0575 113.657 89.3745 114.805 88.4825 114.509C87.5915 114.213 87.7095 113.202 88.2225 112.832C88.7365 112.462 92.8295 111.392 93.3175 111.52ZM96.3545 107.611C96.8435 107.739 97.1365 109.244 96.6155 109.496C96.0945 109.748 92.4115 110.896 91.5195 110.6C90.6285 110.304 90.7465 109.293 91.2595 108.923C91.7735 108.553 95.8655 107.483 96.3545 107.611ZM98.6495 103.979C99.2745 104.088 99.7015 105.534 98.9725 105.817C98.2435 106.1 95.0915 106.785 94.2005 106.488C93.3095 106.192 93.4275 105.181 93.9405 104.811C94.4535 104.442 98.0245 103.87 98.6495 103.979ZM101.076 100.298C101.701 100.407 102.128 101.853 101.399 102.136C100.67 102.419 97.6055 103.122 96.7135 102.826C95.8225 102.53 95.9405 101.521 96.4535 101.151C96.9675 100.781 100.451 100.189 101.076 100.298ZM103.599 96.3995C104.224 96.5085 104.651 97.9545 103.922 98.2375C103.193 98.5205 100.129 99.2235 99.2365 98.9275C98.3445 98.6315 98.4635 97.6215 98.9765 97.2515C99.4905 96.8815 102.974 96.2905 103.599 96.3995Z" fill="#2B2D2E"/>
<path d="M107.261 37.2905C108.636 36.0555 110.326 35.6965 111.161 36.1135C111.996 36.5305 112.35 37.6995 112.269 38.5695L112.126 39.2435C111.607 41.3695 109.923 47.5675 110.913 52.8405C111.984 58.5445 119.306 67.4595 123.889 70.8015L124.766 71.3935C127.09 72.8175 128.34 74.0865 128.913 75.1805C128.91 76.9515 128.393 78.8225 128.034 79.7715L127.698 80.3725L127.71 80.2275C127.93 78.9125 126.003 77.0645 123.845 74.5855C121.687 72.1065 112.756 64.9715 109.599 57.2335C106.441 49.4955 108.22 43.9745 109.238 41.3825C110.255 38.7905 109.074 38.2145 108.47 37.5905C108.285 37.3985 107.665 37.5105 106.886 37.7555L106.962 37.6355L107.261 37.2905Z" fill="#FFD895"/>
<path d="M123.89 70.8005L124.767 71.3925C127.091 72.8165 128.341 74.0855 128.914 75.1795C128.911 76.9505 128.394 78.8215 128.035 79.7705L127.699 80.3715L127.711 80.2265C127.931 78.9115 126.004 77.0635 123.846 74.5845L122.884 73.5825C120.521 71.2505 115.734 67.0215 112.33 62.1245C112.008 60.0715 111.922 57.9425 111.925 55.8785C114.321 61.3275 120.061 68.0085 123.89 70.8005Z" fill="#FFCA6F"/>
<path d="M99.9555 55.6765C100.379 56.5615 98.9135 59.8245 98.3355 61.3975C97.7565 62.9705 96.6285 67.0775 97.4405 68.4655C98.2525 69.8535 103.89 75.3015 104.499 76.7575C105.108 78.2145 103.959 81.3435 103.209 82.8685C102.459 84.3925 100.722 87.2495 99.5945 87.8375L93.0985 90.7425C92.0875 91.2095 91.2585 91.6195 90.8905 91.8695C89.7285 92.6595 83.5925 103.688 79.1695 108.709L76.1015 111.966C72.7065 115.664 69.9345 119.173 68.4495 121.167L65.2635 125.71C63.7195 127.903 62.0315 130.174 60.6795 131.402C58.9905 132.936 55.8495 136.385 53.9055 138.391L54.5385 137.387C54.8755 136.836 55.2505 136.182 55.6995 135.281C57.2535 132.164 58.9415 127.767 59.9385 125.776L60.7725 124.198C62.1515 121.67 64.4055 117.786 65.2285 116.673L66.6255 114.902C67.0295 114.382 67.3605 113.896 67.5795 113.34C68.0185 112.228 70.7235 111.03 71.3375 109.829C71.9515 108.628 73.8435 105.499 74.3835 104.1C74.9235 102.701 74.9985 101.118 76.2875 97.7005L76.8865 96.2535C78.8965 91.6485 83.8835 81.6985 84.0965 81.1075L87.3025 74.1425C87.5935 73.4905 87.8645 72.8715 88.0935 72.3235L88.6295 70.9425C89.3655 68.7685 94.0445 60.2785 95.2105 57.6795L95.4135 57.1895C95.8315 56.0265 96.4155 55.3065 97.1655 55.0295L97.2955 54.6705C98.8785 54.9465 99.7645 55.2785 99.9555 55.6765Z" fill="#EDEBF0"/>
<path d="M99.9556 55.6765C100.379 56.5615 98.9136 59.8245 98.3346 61.3975C97.7556 62.9705 96.6276 67.0775 97.4396 68.4655C98.2516 69.8535 103.889 75.3015 104.498 76.7575C105.107 78.2145 103.958 81.3435 103.208 82.8685C102.458 84.3925 100.721 87.2495 99.5936 87.8375L93.0976 90.7425C92.0866 91.2095 91.2576 91.6195 90.8896 91.8695C89.7276 92.6595 83.5916 103.689 79.1686 108.71L76.1006 111.966C72.7056 115.664 69.9336 119.173 68.4486 121.167L65.2626 125.71C63.7186 127.903 62.0306 130.174 60.6786 131.402C59.9736 132.043 59.0156 133.017 57.9966 134.081C58.2756 133.038 58.6426 132.024 59.0966 131.035C61.2096 126.44 65.8636 120.195 69.4536 116.995L70.4946 116.132C73.9076 113.532 78.4916 105.763 80.1806 101.046L80.5176 100.016C81.6856 95.9955 87.6036 81.9175 90.8476 74.8495L94.0856 67.9865C95.1866 65.6035 97.0716 61.4185 99.7396 55.4325C99.8426 55.5105 99.9146 55.5925 99.9556 55.6765Z" fill="#E9E5E9"/>
<path d="M97.5546 68.6405L97.4396 68.4665C98.2516 69.8555 103.889 75.3025 104.498 76.7585C105.107 78.2155 103.958 81.3445 103.208 82.8695C102.458 84.3935 100.721 87.2505 99.5936 87.8385L93.0976 90.7435C92.0866 91.2105 91.2576 91.6205 90.8896 91.8705C89.7276 92.6605 83.5916 103.689 79.1686 108.71L76.1006 111.967C72.7056 115.665 69.9336 119.175 68.4486 121.169L65.2626 125.712C64.9156 126.205 64.5616 126.7 64.2056 127.188L63.1116 126.531C62.9416 126.438 62.7786 126.356 62.6236 126.285L61.9336 126.024L63.1246 124.313C64.0426 123.823 65.1396 123.338 65.7596 123.01C66.8816 122.416 68.8306 118.761 70.1976 116.365L70.4946 116.132C73.6426 113.733 77.7876 106.935 79.7376 102.193L80.3666 101.541L80.9506 100.882C83.0356 98.3895 85.8746 92.2195 87.5916 88.8875C88.5346 87.0585 88.3126 84.0325 87.9356 81.4125L89.5526 77.7225L90.8066 78.7535C91.4486 79.2435 92.0966 79.6575 92.6736 79.8225C94.6446 80.3845 94.7356 78.0055 95.2586 76.5185L95.4306 76.1025C95.7916 75.3745 96.4996 72.8875 97.5546 68.6405Z" fill="#CDCDCD"/>
<path d="M62.0455 124.681C62.6285 124.141 62.7135 124.463 64.9365 123.941C65.5005 123.808 66.0755 123.765 66.6295 123.769L65.2065 125.774L63.9635 125.587C63.8845 125.58 63.8245 125.577 63.7835 125.578C63.2085 125.6 62.2425 125.73 60.8855 125.968C61.2705 125.47 61.6565 125.041 62.0455 124.681ZM71.6495 109.252C71.9825 109.014 72.2945 108.867 72.7385 108.785C73.5165 108.641 76.1165 108.756 78.2885 108.728L79.1675 108.709L77.0015 111.006L75.4425 110.753C73.8885 110.519 72.4555 110.383 72.0735 110.709L71.2815 111.496C69.9125 112.938 67.5575 115.636 67.3755 115.853C67.1915 116.072 66.9845 115.223 66.9215 114.489L66.6245 114.903C67.0285 114.383 67.3595 113.897 67.5785 113.341C68.0175 112.229 70.7225 111.031 71.3365 109.83L71.6495 109.252ZM91.8675 64.2635C92.2145 64.1715 92.4605 64.1575 92.5345 64.2045C92.7585 64.3455 91.9865 65.5595 91.2775 66.9995L89.0165 72.0705C88.6025 72.9835 88.2265 73.7765 87.9795 74.2055C87.3685 75.2675 92.8225 79.4295 94.7905 81.1375L95.1785 81.4855C96.0105 82.2705 98.8605 84.4055 101.133 86.2835C100.586 87.0125 100.042 87.6055 99.5945 87.8385L92.4545 91.0445C94.0225 89.8505 97.2205 88.1235 97.6535 87.6725C98.1265 87.1805 96.7605 86.4465 95.7095 85.4715L95.2845 85.0385C94.5855 84.2425 91.6695 82.0285 86.5385 78.3965C85.4385 81.7575 84.6965 83.4285 84.3105 83.4095C84.1305 83.4005 83.9115 82.8025 83.6965 81.9775L87.3015 74.1445L88.0925 72.3255L88.6285 70.9445C88.8405 70.3175 89.3815 69.1645 90.0705 67.7795L91.8675 64.2635Z" fill="#908F91"/>
<path d="M42.9576 161.817C43.2516 160.433 42.5556 159.41 41.8336 159.069C41.1116 158.728 38.9386 159.119 37.2686 160.8C35.5996 162.481 35.6946 164.085 36.3226 164.968C36.9506 165.851 38.4346 165.615 39.4416 165.143C40.4496 164.671 42.6626 163.201 42.9576 161.817Z" fill="#242424"/>
<path d="M37.9235 162.304C37.4715 163.459 37.6735 164.054 38.5715 164.233C39.4705 164.412 43.0315 163.829 44.5705 163.765C46.1095 163.702 50.8545 162.397 52.6045 161.258C54.3545 160.118 61.8425 149.065 63.4175 145.36C64.9915 141.655 63.0245 136.262 62.6115 134.033C62.1985 131.804 61.6595 130.585 61.5385 129.566C61.4175 128.547 61.7115 127.932 61.7465 127.253C61.7695 126.8 61.8925 126.385 62.1155 126.007C64.1395 125.309 65.6315 124.949 66.5905 124.928C68.0305 124.897 70.4055 125.566 74.5575 127.497C78.7095 129.428 80.2945 130.138 83.0455 130.798C85.7965 131.458 88.6895 131.979 94.0675 125.036C99.4455 118.093 100.477 114.907 99.7855 113.001C99.3245 111.73 98.9965 110.87 98.8005 110.419C102.302 112.001 105.8 112.875 109.299 113.041C114.547 113.291 116.69 113.15 119.462 112.327C122.234 111.504 123.626 110.55 123.762 110.175C123.898 109.8 120.758 108.841 119.745 108.601C118.733 108.361 116.642 108.583 115.654 108.61C114.666 108.637 111.952 108.92 106.413 107.936C100.874 106.952 92.0545 104.179 89.0625 103.383C86.0705 102.587 79.2805 100.997 76.6145 101.512C73.9485 102.027 71.9015 102.88 72.3575 105.451C71.5735 105.522 70.0225 106.161 70.0495 107.363C70.0765 108.565 70.8745 109.624 73.3385 109.524C75.8025 109.424 80.3585 110.561 82.9145 110.735C85.4705 110.909 92.6005 111.433 93.8725 111.488C95.1445 111.543 96.0105 112.822 95.7075 113.473C95.4045 114.124 85.9085 125.915 85.2275 126.529C84.5465 127.142 84.0235 127.245 81.2485 126.083C78.4735 124.921 74.2555 122.568 70.9055 121.679C67.5555 120.79 66.5875 120.231 64.9545 120.261C63.3205 120.29 63.5555 120.142 62.4475 120.98C61.3405 121.817 59.7005 121.684 58.7795 123.079C57.8595 124.474 56.4735 126.826 57.8965 130.889C59.3195 134.952 60.7085 139.564 60.0485 142.269C59.3885 144.974 49.4265 157.583 48.5955 158.298C47.7645 159.013 43.9665 160.421 42.8885 160.403C41.8105 160.385 40.7875 160.167 39.8925 160.584C38.9985 161.002 38.3755 161.149 37.9235 162.304Z" fill="#F0EDF4"/>
<path d="M74.3105 105.562C82.5275 106.235 87.6405 106.721 89.6485 107.022C92.6605 107.473 83.2435 105.095 79.9115 105.068C77.6905 105.049 75.8235 105.214 74.3105 105.562Z" fill="#D4D4D4"/>
<path d="M63.6236 138.387C64.0696 140.671 64.3016 143.281 63.4176 145.36C61.8436 149.065 54.3556 160.118 52.6046 161.258C50.8546 162.398 46.1096 163.702 44.5706 163.765C43.5856 163.805 41.7736 164.059 40.3596 164.189L41.0926 163.843C41.1986 163.795 41.2966 163.753 41.3866 163.715C42.4136 163.285 45.0756 162.809 46.8426 162.002C48.4326 161.276 47.8936 160.579 47.0956 160.519L46.8226 160.524C45.8976 160.624 47.6866 159.285 49.7426 158.189C51.6276 157.184 55.8576 151.615 57.6876 148.83L58.1236 148.145C59.3546 146.128 60.5376 144.658 61.1606 143.212L61.4636 142.342C61.9186 140.593 62.3206 144.463 62.5356 143.152L62.7896 141.972C62.9646 141.23 63.1946 140.305 63.4036 139.391L63.6236 138.387ZM92.4856 111.285L94.2606 110.977C96.3236 110.653 97.2306 110.711 97.6876 111.654L97.8386 112.05C98.1356 113.031 98.9696 114.776 99.6366 116.013C98.9866 118.005 97.3236 120.832 94.0676 125.037C88.6896 131.98 85.7966 131.459 83.0456 130.799C80.6096 130.215 79.0876 129.592 75.8876 128.115C76.3356 128.091 76.7536 128.126 77.1426 128.219L77.7056 128.4C79.9516 129.323 83.5746 129.234 83.3826 128.225C83.2816 127.696 82.9116 127.131 82.5656 126.597C84.2246 127.191 84.6736 127.03 85.2276 126.531C85.9086 125.918 95.4046 114.126 95.7076 113.475C96.0106 112.824 95.1436 111.545 93.8726 111.49L92.1856 111.387C92.2806 111.329 92.3846 111.303 92.4856 111.285ZM97.6356 108.706C101.901 110.275 104.842 111.083 106.459 111.13C108.884 111.201 111.139 109.461 114.887 109.453C115.754 109.451 116.261 109.12 116.485 108.583C117.535 108.508 118.962 108.417 119.745 108.602L120.676 108.854C121.992 109.239 123.869 109.884 123.763 110.176C123.627 110.551 122.235 111.505 119.463 112.328C116.691 113.151 114.547 113.292 109.3 113.042C106.385 112.903 103.469 112.273 100.552 111.151L99.1126 110.548L97.6356 108.706Z" fill="#CCCDD8"/>
<path d="M128.113 106.373C128.398 104.9 128.327 103.69 127.899 102.744C127.257 101.324 126.861 99.8295 123.825 98.2325C120.789 96.6345 115.258 94.2035 113.075 92.6695C110.892 91.1355 100.405 82.8275 97.4536 80.5685C94.5026 78.3095 89.8165 74.9695 88.8085 73.4245C88.1365 72.3945 87.9515 71.7205 88.2525 71.4005C87.2855 70.3575 86.3795 70.0305 85.5345 70.4175C84.2675 70.9985 83.6565 72.5265 83.8785 73.2295C84.1005 73.9325 84.7955 75.2065 87.2885 77.6385C89.7815 80.0705 97.9716 86.3205 102.577 90.4015C107.182 94.4825 113.013 97.7635 116.4 99.3165C119.787 100.869 123.591 103.216 124.741 103.785C125.509 104.164 126.633 105.027 128.113 106.373Z" fill="#E8E6E4"/>
<path d="M116.599 96.7805C118.515 97.4835 121.358 98.0785 121.781 97.2045L123.824 98.2315C126.86 99.8295 127.256 101.324 127.898 102.743C128.326 103.689 128.397 104.899 128.112 106.372C126.928 105.295 125.972 104.528 125.245 104.069L120.469 101.394C119.5 100.861 118.458 100.307 117.426 99.8015L116.4 99.3145C115.052 98.6965 113.318 97.8055 111.428 96.6985C113.495 96.8745 114.84 96.1345 116.599 96.7805Z" fill="#DBD0D0"/>
<path d="M92.1077 65.3455C92.6397 64.4295 93.4017 62.9925 92.1637 63.4395C90.9257 63.8855 89.9937 63.9945 88.8637 63.5855C87.7337 63.1765 85.4677 63.2265 83.3407 65.3255C81.2137 67.4245 81.5307 70.0475 81.9277 71.9855C82.3247 73.9235 81.3817 77.3085 81.2257 78.7595C81.0697 80.2105 82.1537 81.0305 82.6467 80.2785C83.1397 79.5275 84.0447 74.7095 83.8797 73.2285C83.7157 71.7475 83.5607 68.4145 84.5087 67.2695C85.4567 66.1245 88.7997 65.8635 89.1027 66.8485C89.4057 67.8345 90.3487 69.4625 90.4127 68.8775C90.4767 68.2935 91.5757 66.2615 92.1077 65.3455Z" fill="#343434"/>
<path d="M71.1225 165.301C68.2775 168.2 64.3575 169.713 63.0175 170.114C61.6775 170.515 59.1915 169.076 58.6265 166.11C58.0615 163.144 59.8925 159.674 61.5655 158.106C63.2385 156.538 66.0945 154.517 68.5725 154.896C71.0505 155.275 73.4935 156.538 74.2115 158.036C74.9305 159.535 73.9685 162.402 71.1225 165.301Z" fill="#6D5CCA"/>
<path d="M70.1985 164.312C67.3535 167.211 63.3535 168.732 62.0135 169.133C60.6735 169.534 59.1925 169.076 58.6265 166.11C58.0615 163.144 59.8925 159.674 61.5655 158.106C63.2385 156.538 66.0945 154.517 68.5725 154.896C71.0505 155.275 72.2625 155.589 72.9795 157.087C73.6985 158.586 73.0435 161.413 70.1985 164.312Z" fill="#7B53E8"/>
<path d="M68.2256 156.917C68.4006 156.469 69.0086 156.552 69.4466 156.528C69.8846 156.504 71.8386 157.142 71.9636 157.917C72.0886 158.692 71.1476 159.842 70.2796 160.416C69.4116 160.99 67.2446 161.48 66.9026 162.106C66.5606 162.732 64.9106 164.083 64.3036 165.178C63.6966 166.272 62.5206 166.234 61.2516 166.706C60.2966 167.06 61.2416 168.32 62.0616 169.123C60.6746 169.534 59.1936 169.076 58.6276 166.11C58.5686 165.803 58.5366 165.49 58.5266 165.175L58.7006 165.02L59.0376 164.777C59.8536 164.255 63.1716 163.593 64.1276 163.208C65.0836 162.823 66.8536 160.551 67.2946 160.037C67.7366 159.524 68.0506 157.365 68.2256 156.917Z" fill="#9175F6"/>
<path d="M68.5735 154.896L69.2435 154.989C69.6955 155.641 69.7095 156.778 70.5615 157.481C71.3635 158.143 70.8305 159.753 69.3435 160.102C67.8565 160.451 67.2755 160.53 66.7375 161.375C66.1995 162.22 64.9195 163.392 64.4185 163.702C64.1545 164.103 64.0385 164.447 64.0705 164.734C64.1445 165.405 63.5655 165.835 62.6805 166.146C61.7955 166.457 61.2065 165.817 60.9605 165.363C60.7145 164.909 60.6515 165.214 59.4335 165.517C59.0225 165.619 58.8345 166.1 58.7665 166.7L58.6265 166.111C58.0615 163.145 59.8925 159.675 61.5655 158.107C63.2395 156.538 66.0955 154.518 68.5735 154.896Z" fill="#4334A5"/>
<path d="M113.627 127.542C114.169 128.557 114.133 131.001 112.408 133.836C110.683 136.672 107.496 139.658 104.268 140.603C101.04 141.548 98.9595 137.265 98.5905 135.31C98.2215 133.355 98.8685 129.757 101.251 127.294C103.634 124.831 106.194 123.686 108.868 124.102C111.543 124.517 113.085 126.527 113.627 127.542Z" fill="#6645BD"/>
<path d="M113.029 126.693C113.571 127.708 113.478 130.068 111.751 132.587C110.024 135.106 106.458 138.745 103.229 139.69C100.001 140.635 98.9607 137.265 98.5917 135.31C98.2227 133.355 98.8697 129.757 101.253 127.294C103.636 124.831 106.196 123.686 108.87 124.102C111.544 124.517 112.487 125.678 113.029 126.693Z" fill="#7857DD"/>
<path d="M108.868 124.101C109.528 124.204 110.083 124.352 110.553 124.532C108.231 125.124 108.571 126.105 109.508 126.565C110.542 127.073 113.222 128.348 109.937 130.433C109.31 130.831 108.493 132.18 107.513 133.385C107.005 134.01 106.114 135.151 104.841 136.808C103.585 138.167 102.78 137.338 101.061 137.047C99.9915 136.866 99.8825 138.059 101.049 139.601C99.4845 138.911 98.8595 136.733 98.5905 135.308C98.2215 133.353 98.8685 129.755 101.251 127.292C103.634 124.83 106.194 123.685 108.868 124.101Z" fill="#4D34B6"/>
<path d="M105.278 124.487L105.952 124.404L106.521 124.424C107.836 124.684 108.317 126.79 109.02 126.86C109.723 126.93 110.65 127.477 111.171 128.228C111.692 128.979 109.691 130.187 109.025 130.246L107.522 130.247C106.696 130.261 105.834 130.357 105.632 130.786C105.278 131.536 104.566 133.519 104.831 134.389C105.096 135.259 105.083 136.47 104.136 137.163C103.189 137.856 100.811 136.573 100.383 136.211C100.05 135.93 99.0085 134.629 98.7455 133.087L98.6855 132.338C99.0225 130.647 99.8275 128.768 101.253 127.295C102.545 125.957 103.891 125.008 105.278 124.487Z" fill="#311B8E"/>
<path d="M50.0436 154.786C48.9046 155.774 47.4956 157.23 47.9256 157.771C48.3556 158.312 53.6606 162.281 55.4716 163.08C57.2826 163.879 58.9206 164.34 60.7536 163.83C62.5866 163.32 65.2026 162.396 66.4226 160.262C67.6436 158.128 67.3986 154.961 66.5166 153.153C65.6346 151.344 62.4006 145.859 61.8016 145.039C61.2016 144.219 59.9686 142.795 60.2706 141.981C59.6106 141.554 59.1336 141.684 58.7416 142.092C58.3496 142.5 55.9956 147.156 55.1476 148.222C54.2996 149.287 51.1826 153.798 50.0436 154.786Z" fill="#4E2FBB"/>
<path d="M50.0436 154.786C48.9046 155.774 47.4956 157.23 47.9256 157.771C48.3556 158.312 53.3576 161.763 55.1686 162.563C56.9796 163.362 58.6136 163.852 60.4466 163.342C62.2796 162.832 64.8956 161.908 66.1156 159.774C67.3366 157.64 67.0916 154.473 66.2096 152.665C65.3276 150.857 62.4006 145.859 61.8006 145.039C61.2006 144.219 59.9676 142.795 60.2696 141.981C59.6096 141.554 59.1326 141.684 58.7406 142.092C58.3486 142.5 55.9946 147.156 55.1466 148.222C54.2996 149.287 51.1826 153.798 50.0436 154.786Z" fill="#7B4EE4"/>
<path d="M57.9845 143.338L61.9605 149.683C62.4065 150.417 62.7555 151.009 63.0095 151.46L63.2305 151.863C64.2715 153.822 65.6765 156.874 64.2435 159.267C62.8105 161.66 60.3275 162.076 57.1545 161.253C55.2355 160.755 52.4855 158.961 48.9055 155.872C49.2585 155.492 49.6655 155.113 50.0425 154.786C50.4225 154.457 51.0215 153.737 51.6835 152.883L55.1465 148.223C55.7485 147.468 57.1055 144.91 57.9845 143.338Z" fill="#8754ED"/>
<path d="M59.2207 159.299C58.8267 159.951 59.2117 161.465 59.7147 161.948C60.2177 162.431 62.0327 162.089 62.1437 161.128C62.2547 160.167 61.6227 159.081 60.8007 158.744C59.9767 158.408 59.6137 158.647 59.2207 159.299Z" fill="#483C9D"/>
<path d="M62.6205 156.635C62.8165 157.371 64.1725 158.146 64.8685 158.12C65.5645 158.094 66.5795 156.55 65.9665 155.803C65.3525 155.056 64.1325 154.757 63.3185 155.114C62.5045 155.471 62.4245 155.899 62.6205 156.635Z" fill="#483C9D"/>
<path d="M57.9845 143.338L59.8735 146.361L54.7295 160.195C53.1245 159.279 51.1835 157.837 48.9065 155.872C49.2595 155.492 49.6665 155.113 50.0435 154.786C50.4235 154.457 51.0225 153.737 51.6845 152.883L55.1475 148.223C55.7485 147.468 57.1055 144.91 57.9845 143.338Z" fill="#9D6CFA"/>
<path d="M59.7896 159.531C59.5616 159.71 59.6556 160.742 60.2236 162.158C60.7916 163.574 61.7586 165.235 61.9706 165.449C62.1826 165.663 63.3456 165.236 63.3736 164.734C63.4016 164.232 61.2506 159.954 60.9916 159.491C60.7326 159.028 60.0166 159.351 59.7896 159.531Z" fill="#7A00FE"/>
<path d="M64.0177 155.52C63.3307 155.563 62.8587 156.107 63.1387 156.583C63.4197 157.059 67.1917 158.929 67.5317 159.195C67.8717 159.461 68.9527 159.756 69.5477 159.094C70.1427 158.432 70.1057 157.939 69.5027 157.783C68.8997 157.627 65.6887 155.963 64.9307 155.688C64.1727 155.413 64.7047 155.477 64.0177 155.52Z" fill="#7A00FE"/>
<path d="M106.477 131.798C108.191 129.742 106.716 124.898 104.746 121.943C102.776 118.988 97.3887 113.389 96.7577 113.054C96.1267 112.719 95.9067 111.435 95.2007 111.803C94.4947 112.171 87.9477 121.408 86.8237 123.056C85.6997 124.705 84.6797 125.51 84.4687 126.589C84.2577 127.668 87.4447 130.083 89.4067 131.168C91.3687 132.253 95.3947 134.294 98.6827 134.262C101.973 134.229 104.763 133.853 106.477 131.798Z" fill="#784CDF"/>
<path d="M93.6635 113.628C94.3175 113.965 94.8505 114.292 95.2615 114.61C97.4285 116.278 101.692 120.745 103.822 124.507C105.952 128.269 104.818 131.118 102.759 132.036C100.699 132.954 96.6265 132.557 92.0045 130.307C88.5595 128.63 86.2595 126.265 85.2615 125.087L86.2535 123.843L90.4715 117.912C91.3995 116.627 92.3585 115.319 93.1735 114.243L93.6635 113.628Z" fill="#6D45D6"/>
<path d="M93.6635 113.628C94.3175 113.965 94.8505 114.292 95.2615 114.61L96.1965 115.389C96.3665 115.54 96.5435 115.7 96.7255 115.869L90.0805 129.236C87.6925 127.733 86.0595 126.03 85.2605 125.087L86.2525 123.843L90.4705 117.912L93.1725 114.243L93.6635 113.628Z" fill="#895BE9"/>
<path d="M94.7705 114.263L88.5705 121.889C87.7925 122.826 87.2035 123.519 86.8045 123.968C86.1695 124.683 85.9195 124.725 86.0545 124.095L86.2525 123.843L90.4705 117.912L93.1725 114.243L93.6635 113.628C94.0825 113.843 94.4515 114.055 94.7705 114.263Z" fill="#AD90F5"/>
<path d="M99.0186 115.437L97.6356 113.818L99.2686 115.47C101.147 117.439 103.563 120.168 104.746 121.943C106.716 124.898 108.191 129.742 106.477 131.798C104.763 133.854 101.973 134.228 98.6846 134.26C95.3966 134.292 91.3706 132.252 89.4086 131.167C87.6986 130.221 85.0576 128.265 84.5476 127.064C87.0566 129.203 91.6786 131.789 94.5606 132.568C97.6786 133.41 100.484 133.573 102.339 133.092C104.194 132.611 105.149 131.399 105.738 129.759C106.327 128.119 105.489 126 104.009 122.586C103.291 120.931 101.628 118.548 99.0186 115.437Z" fill="#4E34AF"/>
<path d="M100.237 129.949C99.7066 130.139 99.3246 130.664 100.264 132.405C101.203 134.145 102.457 137.118 103.556 136.581C104.655 136.045 103.639 134.66 103.425 134.173C103.211 133.686 101.717 130.793 101.45 130.354C101.182 129.916 100.767 129.759 100.237 129.949Z" fill="#9761E9"/>
<path d="M103.691 125.718C102.869 125.858 102.216 126.445 102.5 127.052C102.784 127.66 103.623 127.486 104.957 127.823C106.291 128.16 107.996 129.11 108.274 129.419C108.552 129.728 110.286 129.24 110.406 128.564C110.526 127.888 108.628 127.368 107.727 127.009C106.826 126.65 104.513 125.578 103.691 125.718Z" fill="#9761E9"/>
<path d="M148.055 145.041C147.644 143.791 147.941 138.421 147.736 135.067C147.531 131.713 149.356 111.988 150.09 108.353C150.823 104.718 151.289 103.467 152.485 102.179C153.681 100.892 157.227 97.0985 157.189 95.6875C157.15 94.2755 156.652 90.7515 157.544 88.8995C158.436 87.0475 173.13 69.7275 175.734 66.6665C178.338 63.6065 185.875 54.6025 187.081 53.3745C188.287 52.1465 189.618 51.7505 191.941 52.3245C194.264 52.8985 200.921 55.5715 201.767 55.8395C202.613 56.1075 204.699 54.7555 204.881 54.9145C205.003 55.0205 207.533 58.0965 212.473 64.1415L203.513 78.5845L173.26 120.305C156.731 137.628 148.329 145.874 148.055 145.041Z" fill="#DDDDE1"/>
<path d="M148.055 145.042C147.644 143.792 148.659 138.878 148.455 135.523C148.25 132.169 150.075 112.445 150.809 108.81C151.542 105.175 152.008 103.924 153.204 102.636C154.4 101.349 157.946 97.5545 157.908 96.1435C157.87 94.7325 157.371 91.2075 158.263 89.3555C159.155 87.5035 173.849 70.1835 176.453 67.1225C179.057 64.0615 186.329 55.2795 187.534 54.0505C188.74 52.8225 190.071 52.4265 192.394 53.0005C194.717 53.5745 201.374 56.2475 202.22 56.5155C203.066 56.7835 204.699 54.7545 204.881 54.9135C205.003 55.0195 207.533 58.0955 212.473 64.1405L203.513 78.5835L173.26 120.305C156.731 137.629 148.329 145.875 148.055 145.042Z" fill="#B9BDC1"/>
<path d="M202.219 56.5155C203.065 56.7835 204.698 54.7545 204.88 54.9135L212.472 64.1405L204.375 77.1875L200.794 64.5095C199.873 61.2555 197.822 57.6535 194.641 53.7025L198.372 55.0665C200.223 55.7645 201.832 56.3935 202.219 56.5155Z" fill="#CCC8C8"/>
<path d="M175.977 0.566476C178.127 -0.426524 181.858 -0.474524 184.407 3.44148C186.956 7.35748 187.615 11.5665 186.579 15.0515C185.543 18.5375 181.761 22.8465 181.609 23.7245C181.458 24.6025 185.061 28.0655 186.318 29.2315C187.575 30.3975 187.584 32.4085 188.694 33.0005C189.804 33.5925 193.007 32.0135 198.335 32.5335C203.663 33.0535 206.534 35.8385 207.88 38.8025C209.226 41.7665 207.545 47.5335 206.746 51.4075C205.947 55.2815 208.424 56.9275 210.478 58.8645C212.532 60.8015 213.333 62.1635 212.757 63.4185C212.181 64.6745 211.686 64.2595 211.415 64.0905C211.144 63.9205 208.89 60.9825 208.002 59.7095C207.113 58.4365 205.648 56.4705 205.335 55.8235C205.023 55.1755 204.918 54.6885 204.673 53.6325C204.428 52.5765 205.151 48.3485 205.776 46.5765C206.401 44.8035 206.618 40.7935 205.107 37.6655C203.596 34.5375 199.04 34.4405 196.982 34.1435C194.924 33.8465 190.379 35.0745 188.674 34.8925C186.969 34.7105 184.043 31.6235 183.106 30.5665C182.169 29.5095 178.499 26.1505 177.647 25.2705C176.795 24.3905 175.2 22.5895 174.835 21.7945C174.47 20.9995 174.564 18.7685 174.543 17.7055C174.522 16.6425 172.4 14.4175 171.186 10.0555C169.974 5.69547 173.827 1.55948 175.977 0.566476ZM176.89 2.18247C174.802 3.15447 173.096 6.30948 173.129 9.07748C173.162 11.8455 175.394 14.8355 176.652 16.3385C177.91 17.8415 177.485 19.5405 177.718 20.5925C177.951 21.6445 179.195 22.9915 179.603 22.7065C180.011 22.4215 180.923 21.0285 181.961 19.5165C182.999 18.0035 184.244 15.6565 185.018 12.7945C185.792 9.93347 184.48 6.59647 183.153 4.60447C181.828 2.61247 178.978 1.21047 176.89 2.18247Z" fill="#2C2F28"/>
<path d="M193.787 54.4255L196.9 55.4785C200.629 56.6785 203.294 56.9495 205.541 56.0415L205.75 55.9425L207.167 57.6605C206.902 57.7935 206.623 57.9095 206.342 58.0235C203.823 59.0415 201.097 58.9065 197.596 57.9215L195.133 57.1425L194.052 56.7665C190.96 55.6865 190.524 55.7355 188.818 57.2665L187.59 58.5025L185.99 60.2285C182.649 63.8895 177.272 70.0605 173.237 75.0215L169.168 80.1355L162.927 88.2955C162.87 88.3775 162.826 88.4425 162.796 88.4885C162.483 88.9805 161.801 95.0855 161.478 96.6835C161.136 98.3715 160.264 100.107 158.988 101.88C158.514 102.539 158 103.181 157.451 103.81L156.243 105.121L155.079 106.284L155.025 106.371L154.869 106.752L154.704 107.393C154.391 108.824 154.018 111.709 153.507 116.815L153.065 121.408C152.634 126.046 152.368 130.584 152.267 135.021C152.632 134.786 163.975 122.814 168.621 118.159C170.249 116.528 169.041 114.793 167.144 115.716C165.247 116.639 163.609 116.797 162.865 115.671C161.364 113.4 160.946 110.406 163.34 106.881C164.091 105.776 167.908 101.354 167.115 96.7585C166.321 92.1625 166.486 89.6215 167.831 87.6915C170.469 83.9065 180.76 68.9065 189.203 61.1225C191.358 59.1355 192.529 58.8995 195.277 59.5605C200.037 60.7055 199.043 74.1935 202.366 71.5935C205.907 68.8235 209.442 64.4435 210.852 63.2875C211.885 62.4405 213.614 64.6265 216.037 69.8445C173.498 117.147 152.234 141.106 152.243 141.721L150.862 143.009C150.654 143.198 150.458 143.375 150.273 143.538C150.184 143.39 150.135 143.221 150.13 143.04C149.966 136.021 150.235 128.744 150.936 121.209L151.742 113.061L152.005 110.815C152.43 107.451 152.797 105.911 153.297 105.122L153.598 104.751L155.042 103.283C155.856 102.417 156.598 101.537 157.25 100.631C158.364 99.0835 159.107 97.6035 159.379 96.2585L160.114 91.2245C160.392 89.4455 160.705 87.7865 160.989 87.3395L161.731 86.3015L165.161 81.7955C166.607 79.9255 168.269 77.8015 169.889 75.7695L173.46 71.3805L176.475 67.8055C181.245 62.2195 186.121 56.8095 187.386 55.6745C189.521 53.7635 190.747 53.4725 193.787 54.4255Z" fill="#AA7EF7"/>
<path d="M0.785563 200.738C0.282563 200.639 -1.24144 203.451 2.09956 210.115C5.44156 216.779 9.73455 218.266 12.5666 219.821C15.3986 221.376 25.5426 223.954 33.1966 222.802C40.8506 221.65 44.5866 220.221 45.8926 220.088C47.1986 219.955 50.1836 219.579 50.9676 218.946C51.7516 218.312 53.6756 218.246 54.8406 218.23C56.0056 218.214 58.2596 216.742 58.7916 216.719C59.3236 216.695 60.5816 216.79 62.7866 215.687C64.9906 214.584 74.8006 209.675 76.1836 208.983C77.5666 208.291 76.9916 206.802 76.3106 205.657C75.6296 204.513 73.8526 202.722 72.2336 202.484C70.6136 202.247 45.2266 212.856 37.5636 214.499C29.9006 216.142 21.1406 217.663 17.6596 216.854C14.1786 216.045 12.2506 214.739 10.6686 213.566C9.08656 212.393 6.55456 210.434 5.17756 207.837C3.80056 205.24 1.28856 200.837 0.785563 200.738Z" fill="#E2E2E2"/>
<path d="M1.48053 201.51C2.46253 202.906 4.14153 205.88 5.17653 207.835C6.35653 210.061 8.38553 211.818 9.93753 213.014L10.6675 213.565C12.2495 214.739 14.1765 216.045 17.6585 216.853C21.1395 217.662 29.8985 216.142 37.5625 214.499C45.2265 212.856 70.6135 202.247 72.2325 202.484C73.8525 202.721 75.6285 204.512 76.3095 205.657C76.9145 206.674 77.4365 207.963 76.5735 208.723L76.1825 208.982L62.7855 215.686C60.5815 216.789 59.3225 216.695 58.7905 216.719C58.2585 216.743 56.0045 218.213 54.8395 218.229C53.8685 218.243 52.3705 218.291 51.4445 218.674L50.9665 218.946C50.2945 219.489 48.0055 219.843 46.5425 220.017L45.8915 220.089C44.5855 220.222 40.8495 221.65 33.1955 222.802C30.7065 223.177 27.9555 223.157 25.2765 222.907C26.2665 222.753 27.2325 222.571 28.1225 222.34L31.3405 221.534C33.3235 221.081 33.0665 221.322 34.0185 221.503C35.3165 221.749 36.4855 220.497 38.6975 219.762C40.9095 219.026 40.4705 220.326 42.4035 220.069C44.0605 219.848 44.7975 219.059 45.4245 218.932L45.7325 218.928C46.4475 219.078 46.8325 218.029 47.4155 216.852C47.9985 215.675 50.3625 217.261 51.7415 217.113C53.1205 216.966 51.8675 214.897 53.6225 215.257C55.3775 215.616 56.6785 214.727 56.9845 213.298C57.2905 211.869 60.5945 213.344 62.5605 213.256C64.5275 213.168 63.6395 212.273 63.6495 210.704C63.6595 209.135 65.5345 210.992 67.1055 210.98C68.6765 210.968 68.5295 210.542 68.3745 209.519C68.2195 208.496 70.1545 209.547 71.7115 209.911C73.2685 210.274 75.9765 208.593 75.2225 206.204C74.4685 203.815 73.4045 203.243 71.3105 203.976C69.2165 204.708 57.8165 209.169 50.9635 211.753C44.1105 214.337 36.5215 216.742 28.6645 217.803C24.5395 218.36 20.8285 218.633 17.9555 218.152C15.3555 217.717 13.5435 216.392 13.2015 216.108C12.4815 215.51 11.1035 214.104 8.72453 212.422C6.52853 210.869 2.35753 204.666 1.55653 202.191L1.42554 201.668L1.48053 201.51Z" fill="#B7B7B6"/>
<path d="M245.802 92.1385C243.923 88.3845 240.952 86.7915 240.086 86.5485C239.221 86.3055 238.403 83.7695 238.658 81.8825C238.913 79.9955 237.254 78.3925 235.028 77.4325C232.801 76.4735 209.883 78.1635 208.307 79.4725C206.731 80.7815 174.804 113.136 171.331 116.688C167.858 120.24 158.766 129.936 156.779 131.941C154.792 133.946 148.078 139.883 146.561 141.068C145.044 142.253 119.622 159.889 117.443 161.109C115.264 162.328 76.4756 183.764 58.8676 192.206C41.2596 200.648 12.7766 213.078 11.8856 213.936C10.9946 214.794 13.9836 217.638 18.1596 218.055C22.3356 218.472 31.8436 218.167 47.0206 212.738C62.1976 207.31 71.9946 203.073 72.9396 203.065C73.8846 203.057 75.4236 204.106 75.8666 205.217C76.3096 206.329 76.3736 207.371 76.8776 207.238C77.3816 207.105 79.3516 206.22 79.7506 205.46C80.1496 204.7 81.6926 205.374 84.5216 204.233C87.3506 203.092 89.8636 202.133 92.9726 200.578C96.0806 199.022 127.127 183.399 131.139 181.391C135.151 179.383 137.894 175.721 139.286 172.155C140.677 168.589 142.439 166.939 143.763 166.532C145.087 166.125 146.076 168.142 147.168 167.714C148.26 167.286 148.939 167.008 149.363 167.579C149.787 168.15 152.144 169.751 154.556 169.007C156.968 168.263 162.073 165.91 169.355 162.265C176.637 158.621 205.298 144.278 214.484 139.68C223.671 135.083 225.005 130.4 225.893 129.279C226.78 128.158 229.416 128.984 229.961 128.295C230.506 127.606 231.329 125.847 232.906 125.769C234.483 125.691 236.314 124.45 236.412 123.547C236.51 122.644 237.708 122.071 237.805 122.354C237.901 122.637 240.121 122.196 240.53 120.205C240.939 118.214 240.928 117.429 242.111 117.311C243.294 117.193 243.681 115.615 243.393 114.461C243.105 113.307 244.738 114.241 245.052 113.631C245.261 113.224 245.507 112.349 245.788 111.006C247.28 107.488 248.09 104.642 248.218 102.469C248.412 99.2115 247.681 95.8925 245.802 92.1385Z" fill="#DFDFDF"/>
<path d="M208.308 79.4725C209.884 78.1635 232.802 76.4735 235.029 77.4325L235.694 77.7465C232.575 80.4995 225.138 91.0995 222.153 91.8225C218.707 92.6565 218.075 90.2365 216.721 89.9795C215.366 89.7215 212.909 91.0255 209.117 94.8635C207.492 96.0195 201.806 96.3005 192.057 95.7055L207.646 80.0925C207.981 79.7675 208.207 79.5565 208.308 79.4725Z" fill="#E2E2E2"/>
<path d="M79.6707 201.374L81.0857 200.713L82.1077 200.275C82.5367 200.098 82.8337 200.015 82.9597 200.172C83.2537 200.538 84.9397 201.522 86.3347 201.359L87.3227 201.217L89.1467 200.898C90.9037 200.566 93.1597 200.074 95.2027 199.458L92.9737 200.578C89.8657 202.134 87.3517 203.092 84.5227 204.233C82.0077 205.247 80.5097 204.827 79.9277 205.255L79.7517 205.46C79.3517 206.22 77.3827 207.104 76.8787 207.237C76.4977 207.337 76.3687 206.769 76.1377 206.006C76.9337 205.746 77.5837 205.25 78.0887 204.516C78.9547 203.257 78.4797 201.899 79.6707 201.374Z" fill="#9C9C9C"/>
<path d="M242.204 99.9705C239.147 105.902 233.624 112.488 231.681 117.281C229.822 121.866 235.378 119.611 240.442 115.868L241.129 115.349C242.518 114.275 243.964 113.281 245.468 112.367C245.321 112.964 245.18 113.385 245.053 113.633C244.739 114.244 243.106 113.309 243.394 114.463C243.682 115.617 243.295 117.195 242.112 117.313C240.929 117.431 240.94 118.216 240.531 120.207C240.163 121.999 238.328 122.535 237.895 122.418L237.806 122.356C237.724 122.114 236.831 122.5 236.516 123.184L236.413 123.549C236.315 124.452 234.484 125.693 232.907 125.771C231.33 125.849 230.506 127.607 229.962 128.297C229.418 128.987 226.781 128.161 225.894 129.281C225.053 130.343 223.811 134.601 215.872 138.956L214.486 139.682L167.715 163.084C161.305 166.263 156.784 168.322 154.558 169.009C152.414 169.671 150.313 168.478 149.575 167.804L149.365 167.58C148.941 167.009 148.263 167.288 147.17 167.716C146.077 168.144 145.089 166.125 143.765 166.532C142.588 166.894 141.065 168.239 139.764 171.037L139.288 172.157C138.875 173.214 138.344 174.279 137.696 175.308C138.042 171.492 138.621 169.029 139.425 167.912C140.923 165.831 145.978 164.776 148.633 163.32L151.098 161.856C155.382 159.248 162.98 154.52 165.86 153.776C169.202 152.912 177.433 149.512 182.86 146.262L184.059 145.515C189.389 142.056 218.576 121.172 220.021 120.801C221.466 120.43 221.474 129.107 223.834 127.823C226.195 126.539 226.821 117.601 227.03 115.196C227.053 114.93 229.208 108.883 225.366 112.474C221.547 116.044 202.808 128.824 217.49 112.571C232.172 96.3175 234.098 93.6715 236.728 90.3335L237.267 89.6355C240.324 85.5765 245.262 94.0395 242.204 99.9705Z" fill="#D4D4D4"/>
<path d="M241.415 117.523C240.908 117.898 240.837 118.713 240.531 120.205C240.163 121.997 238.328 122.533 237.895 122.416L237.806 122.354C237.724 122.112 236.831 122.498 236.516 123.182L236.413 123.547C236.315 124.45 234.484 125.691 232.907 125.769C231.33 125.847 230.506 127.605 229.962 128.295C229.418 128.985 226.781 128.159 225.894 129.279L225.57 129.781C224.668 131.344 222.877 135.111 215.871 138.953L214.485 139.679L167.714 163.082C161.304 166.261 156.783 168.319 154.557 169.006C152.413 169.668 150.312 168.476 149.574 167.802L149.364 167.578C148.94 167.007 148.262 167.285 147.169 167.713C146.64 167.92 146.136 167.554 145.605 167.168L151.365 163.69C155.831 161.032 159.199 159.128 161.469 157.978C166.388 155.487 179.021 150.65 182.707 148.69C186.393 146.731 190.052 146.882 191.022 146.493C191.992 146.104 192.666 142.984 195.46 143.23C198.079 143.461 196.913 146.519 199.083 143.784L199.564 143.157C202.388 139.375 203.807 141.043 204.339 140.767C204.871 140.491 206.618 139.312 206.52 138.019C206.422 136.726 205.511 136.46 207.561 137.174C209.611 137.888 213.068 137.862 213.149 136.358C213.23 134.855 211.535 132.46 214.496 132.78C217.457 133.101 218.995 133.944 220.035 133.415C221.075 132.886 220.345 132.89 219.752 131.396C219.16 129.902 220.104 127.877 221.59 127.889C221.97 127.892 222.374 127.794 222.764 127.631C223.05 127.956 223.402 128.052 223.831 127.819C224.568 127.418 225.135 126.272 225.574 124.812C226.48 124.486 228.244 124.528 229.528 124.435C231.343 124.305 231.261 121.181 233.785 122.305C236.309 123.429 236.886 121.791 237.003 118.989C237.067 117.497 238.537 117.008 241.415 117.523Z" fill="#B0B0B0"/>
<path d="M146.771 165.336C148.321 165.967 159.738 160.538 162.161 159.995C164.584 159.452 165.639 161.198 166.228 160.29C166.816 159.383 165.719 158.419 168.413 157.81L171.526 157.094C172.734 156.801 173.68 156.535 174.257 156.273L174.992 155.88C177.076 154.711 182.556 151.468 186.204 150.147L187.075 149.859C191.207 148.642 201.85 142.555 205.326 141.976C206.61 141.762 207.157 142.374 207.079 143.394L167.718 163.083C161.308 166.262 156.787 168.319 154.561 169.006C152.417 169.668 150.316 168.477 149.578 167.803L149.368 167.579C148.944 167.008 148.266 167.285 147.173 167.713C146.08 168.141 145.092 166.124 143.768 166.531C142.591 166.893 141.068 168.238 139.767 171.036L139.291 172.155C139.142 172.537 138.978 172.92 138.798 173.302C139.087 170.655 139.988 167.718 140.591 167.196C141.412 166.481 145.221 164.705 146.771 165.336Z" fill="#828282"/>
<path d="M130.352 169.665C136.683 166.544 137.627 168.634 137.966 169.741C138.091 170.149 138.729 172.415 139.326 172.04L139.287 172.155C137.896 175.721 135.153 179.383 131.14 181.391L92.9736 200.578C91.2506 201.44 89.7096 202.119 88.1976 202.748L87.0706 201.524C86.9886 201.443 86.9216 201.381 86.8686 201.336L85.4006 200.258C84.5626 199.618 83.6016 198.771 83.0086 197.74C82.1006 196.161 83.6836 194.781 88.5396 191.722L90.8236 190.303C97.4586 186.214 124.021 172.786 130.352 169.665ZM120.359 159.211C114.606 163.658 104.269 170.168 91.6496 177.781L88.3556 179.718C68.8466 190.926 35.7926 205.788 29.2956 209.073C22.7156 212.4 24.7536 214.27 30.2796 213.444C35.8056 212.619 40.4716 211.292 46.9826 209.262L49.8586 208.332C57.4626 205.814 69.8886 201.869 71.2556 201.767C72.6096 201.667 72.7686 202.217 73.7166 203.235C73.4366 203.124 73.1706 203.063 72.9396 203.065C71.9946 203.072 62.1986 207.309 47.0206 212.737C31.8436 218.165 22.3356 218.471 18.1596 218.055C13.9836 217.638 10.9946 214.793 11.8856 213.935C12.7516 213.101 39.7396 201.311 57.4166 192.899L61.3946 190.977C79.9266 181.857 115.363 162.273 117.443 161.109L120.359 159.211ZM151.069 137.194C151.549 138.895 151.676 140.214 151.448 141.151C150.832 143.685 147.207 146.406 145.888 147.457C144.568 148.508 146.272 144.814 145.582 143.233C145.437 142.901 144.502 143.051 143.106 143.525L146.562 141.066L149.036 138.974L151.069 137.194Z" fill="#EDEDED"/>
<path d="M24.4805 211.537L26.7535 210.397C27.0625 210.247 27.3885 210.091 27.7305 209.928C23.1045 212.71 25.2445 214.196 30.2805 213.444C35.8065 212.619 40.4725 211.292 46.9835 209.262L60.2815 204.963C65.6335 203.273 70.4355 201.828 71.2565 201.768C72.6005 201.669 72.7675 202.209 73.6955 203.212C72.6745 202.861 71.7555 202.611 71.1765 202.663C69.1855 202.842 33.1485 216.298 26.4225 216.244C19.6965 216.19 20.6165 213.591 24.4805 211.537Z" fill="#E7E7E7"/>
<path d="M238.976 84.9034C239.256 85.7684 239.666 86.4294 240.087 86.5484C240.952 86.7914 243.924 88.3844 245.803 92.1384C246.131 92.7944 246.424 93.4364 246.683 94.0674C245.437 92.8194 244.54 93.4805 242.214 97.1465C239.589 101.284 233.206 108.25 230.987 110.607C229.508 112.178 229.119 113.758 228.957 115.452L228.561 120.898C228.36 123.229 228.029 125.65 227.19 126.369C226.126 127.283 224.939 126.499 224.295 125.079L224.08 124.519C223.52 122.761 221.99 121.303 221.004 120.895C220.388 120.64 218.222 122.113 215.378 124.317L209.713 128.857C204.717 132.92 194.315 140.192 189.285 143.244L186.437 144.882C181.199 147.826 172.011 152.863 170.607 154.061L168.625 155.676C166.656 157.244 164.241 159.096 164.786 158.491L165.321 157.971C167.895 155.597 166.794 154.947 169.18 153.184C171.566 151.42 183.868 144.489 190.385 140.419L192.226 139.224C199.354 134.462 213.133 124.042 216.013 121.548L216.348 121.247C218.408 119.294 220.698 118.256 222.8 119.322C224.901 120.387 225.978 125.218 226.339 123.39C226.7 121.562 226.888 113.366 227.475 111.473C228.063 109.58 242.323 95.9494 242.239 93.1384C242.155 90.3274 239.205 89.2485 238.601 88.3445C238.35 87.9675 238.38 87.3284 238.547 86.5354L238.976 84.9034Z" fill="#C8C8C8"/>
<path d="M232.308 77.4125L232.265 77.1575L233.728 77.2175C234.35 77.2635 234.799 77.3345 235.029 77.4325C237.256 78.3915 238.914 79.9955 238.659 81.8825C238.404 83.7695 239.221 86.3055 240.087 86.5485C240.726 86.7285 242.515 87.6445 244.164 89.6245L243.924 90.6765L243.852 91.1445C243.718 92.6295 242.48 94.8895 241.093 97.1825C239.805 99.3115 233.244 106.496 230.669 109.171L230.15 109.704C228.096 111.776 227.844 112.639 227.588 115.94C227.332 119.241 227.546 122.176 226.731 124.572C225.916 126.968 224.872 124.988 224.811 124.043C224.749 123.098 223.204 121.159 221.787 120.26C220.465 119.421 219.08 120.184 214.586 123.849L213.574 124.679C208.267 129.058 197.154 136.884 192.312 140.029L190.563 141.111C184.886 144.498 174.539 149.766 178.926 147.005L187.92 141.367C192.716 138.318 198.039 134.814 201.74 131.935L204.542 129.742C209.7 125.676 214.827 121.457 217.502 118.68L219.422 116.595C223.929 111.786 237.564 97.0565 239.888 93.6435C242.486 89.8285 239.578 88.7085 238.504 90.1585L235.558 93.4665C231.869 98.0465 222.787 109.008 215.332 116.72C206.183 126.184 190.673 137.367 189.4 136.467C188.128 135.567 210.099 116.04 214.619 111.199L215.802 109.896C221.427 103.574 235.195 86.7565 235.762 84.4965C236.375 82.0555 233.648 79.4745 232.578 77.9495C232.46 77.7805 232.371 77.6005 232.308 77.4125Z" fill="#E7E7E7"/>
<path d="M169.07 119.033L168.676 120.084L162.917 127.016C159.21 131.422 156.639 134.337 155.203 135.76C152.462 138.477 149.537 140.265 147.329 141.757L133.814 151.36C128.442 155.146 122.87 159.007 120.368 160.528L116.83 162.576C111.357 165.774 101.313 171.724 90.1226 177.625L84.1086 180.745C68.4066 188.793 40.7996 202.37 28.2066 207.615L25.2656 208.822C19.3436 211.214 16.2516 212.2 14.2476 212.709L25.1886 207.687C34.0026 203.693 45.6436 198.451 55.1766 193.958L61.3926 190.977C79.9246 181.857 115.361 162.273 117.441 161.109L118.884 160.192C124.794 156.299 145.205 142.126 146.559 141.068C148.076 139.883 154.79 133.946 156.777 131.941L169.07 119.033ZM208.308 79.4725C209.884 78.1635 232.802 76.4735 235.029 77.4325C237.256 78.3915 238.914 79.9955 238.659 81.8825C238.479 83.2155 238.834 84.8715 239.363 85.8155C238.917 85.6515 238.623 85.4265 238.617 85.0835C238.596 83.7695 237.188 82.1415 235.939 81.2575C235.023 80.6085 232.197 84.3765 230.655 86.5955L229.635 88.1145C229.381 88.5275 228.5 88.2665 224.675 86.8945C220.85 85.5225 214.38 84.7815 213.911 84.7045C213.442 84.6265 211.306 86.8475 205.472 94.6935L204.109 96.4385C197.14 105.035 179.512 123.084 176.559 125.916L176.293 126.167C174.258 128.024 173.556 128.684 172.635 127.994C171.806 127.374 171.253 126.127 171.559 123.358L171.694 122.377C171.959 120.74 171.974 118.702 171.74 116.265L203.436 84.2605C206.121 81.5745 207.959 79.7625 208.308 79.4725Z" fill="#ECECEC"/>
<path d="M130.498 179.683C130.936 179.635 131.437 179.561 131.966 179.404L132.777 179.099L133.648 178.626C134.371 178.198 135.379 177.544 136.672 176.665L136.002 177.297C133.212 179.731 127.592 183.147 121.758 186.16L90.7965 201.667C90.5585 201.786 89.5335 201.762 88.6855 201.703C89.4595 201.49 90.1615 201.176 90.3235 200.918L90.5905 200.995L90.3165 200.727C90.0025 200.329 91.2965 200.111 91.7885 199.969L91.9556 199.903C92.0176 199.855 92.2475 199.798 92.5305 199.72C92.8155 199.739 93.0475 199.683 93.2065 199.506C93.5625 199.359 93.8665 199.173 93.9185 198.921C94.0465 198.301 95.5176 198.438 96.3416 198.136C97.1656 197.835 102.649 194.976 104.342 194.133C106.035 193.29 106.342 192.912 107.669 191.665C108.996 190.419 109.015 191.368 109.614 191.066C110.213 190.764 111.673 189.501 112.139 188.937C112.512 188.486 113.529 188.183 114.408 188.049L115.029 187.981C115.98 187.922 116.797 187.752 118.492 186.622C120.188 185.492 120.06 184.831 121.587 184.208C122.896 183.674 123.491 183.756 123.823 183.605L123.969 183.506C124.268 183.213 126.09 182.344 126.678 181.659C127.136 181.125 128.447 180.079 128.846 180.009C129.112 179.964 129.662 179.855 130.498 179.683Z" fill="#1A0855"/>
<path d="M32.1345 212.131C35.2645 210.338 74.2985 194.779 73.8595 195.576C73.4205 196.374 63.6555 200.924 52.2545 205.66C40.8535 210.397 29.0035 213.924 32.1345 212.131Z" fill="#D4D5D5"/>
<path d="M32.2517 212.56C37.7537 210.465 41.7467 208.917 44.2307 207.916C57.0177 202.76 66.6737 198.677 73.2067 196.032C72.2087 196.706 70.6447 197.53 68.5147 198.504C65.3187 199.965 60.1257 202.391 52.2537 205.661L49.8937 206.622C42.0197 209.768 34.4387 212.2 32.2517 212.56Z" fill="#EDEDED"/>
<path d="M83.5287 193.471C83.5217 193.118 82.9117 190.592 90.1627 186.34C97.4137 182.088 119.058 170.865 121.96 169.906C124.861 168.947 100.584 181.742 97.4177 183.523C94.2527 185.304 88.3067 188.519 87.1367 189.536C85.9667 190.552 83.5367 193.823 83.5287 193.471Z" fill="#F1F1F1"/>
<path d="M134.085 164.989C132.49 163.851 129.977 163.162 127.033 164.922C125.07 166.095 123.564 166.398 122.514 165.831C122.89 167.301 123.798 167.986 125.239 167.886C127.401 167.736 128.557 165.354 130.599 165.204C132.64 165.053 135.68 166.127 134.085 164.989Z" fill="#D0D0D0"/>
<path d="M144.477 161.812C144.244 159.921 146.743 158.123 148.991 155.406C151.24 152.689 152.557 150.419 152.086 148.545C151.615 146.671 153.499 148.101 153.388 150.437C153.277 152.774 151.562 154.476 149.778 156.344C147.995 158.212 146.087 159.41 144.477 161.812Z" fill="#D0D0D0"/>
<path d="M200.569 130.647C194.521 135.664 181.038 144.207 182.531 143.807C184.023 143.407 198.244 135.32 208.303 127.027C218.362 118.734 228.397 106.244 226.212 107.26C224.027 108.276 215.592 117.594 211.136 121.508C206.68 125.422 206.617 125.631 200.569 130.647Z" fill="#CFD1D2"/>
<path d="M215.751 62.0485C217.25 63.5235 219.06 67.1425 222.993 69.6995C226.926 72.2565 228.792 72.6165 231.157 74.0905C233.522 75.5655 235.289 76.8325 235.323 78.0035C235.344 78.7465 233.197 81.7545 231.512 84.0245C223.784 80.3625 218.384 78.0565 215.313 77.1055C209.762 75.3875 203.46 75.4855 202.441 75.1265C201.53 74.8055 201.117 74.1815 201.199 73.2085C201.783 73.2605 202.487 72.8755 203.324 72.0075C205.704 69.5375 209.101 64.8915 210.965 63.5605L212.538 62.3675C213.691 61.5175 214.702 61.0155 215.751 62.0485Z" fill="#7756D3"/>
<path d="M123.32 166.13C122.031 165.456 123.611 163.588 128.059 160.527C134.731 155.936 148.271 148.516 149.51 147.951C150.749 147.387 151.88 147.992 151.973 147.783C152.066 147.574 151.071 146.201 149.339 146.834C147.607 147.467 133.789 155.249 127.3 159.684C122.974 162.641 121.378 164.689 122.514 165.829L123.32 166.13Z" fill="#E6E6E6"/>
</svg>
